<svg version="1" xmlns="http://www.w3.org/2000/svg" width="2069.333" height="2069.333" viewBox="0 0 1552.000000 1552.000000"><path d="M753.8 460.4c-.1.2-3.4.6-7.3 1-3.8.3-8.1.8-9.5 1-1.4.2-5 .7-8 1.1-4.4.5-16.7 2.9-26 5-13 2.9-39.4 11.5-50.5 16.4-5.4 2.4-27.6 13.5-32.5 16.2-10.5 5.9-37.9 24.5-41 27.9-.3.3-3.2 2.7-6.5 5.5-9.8 8.1-16 14.1-33 31.9-1.1 1.1-5.7 6.8-10.2 12.6-4.6 5.8-8.7 11-9.1 11.5-.5.6-1.7 2.4-2.8 4-1 1.7-2.1 3.2-2.4 3.5-.5.5-5.7 8.2-7.5 11.2-13.7 22.8-22.2 40.6-30 62.7-4.2 12.2-9.7 31.3-10.9 38.4-1.1 6.1-4.3 13.7-5.8 13.7-.5 0-.8.7-.8 1.6 0 .8-.5 2.5-1.2 3.7-1.3 2.5-1.6 3.4-2.1 9.3-.5 4.2 1.5 11.6 3.1 12.2.5.1.8 2.9.5 6-.3 3.1-.6 9.7-.8 14.7-.3 10.3-.3 10.3-1.3 9-1.5-2.1-5.7-3.7-9.5-3.7-5.1.1-11.9 4.6-21.5 14.1-9.8 9.8-20.2 23.7-20.2 27 0 .7 2 3.2 4.5 5.5 2.5 2.4 4.5 5 4.5 5.9 0 .8-1.4 4.6-3.1 8.4-3.4 7.6-5.2 11.6-5.4 12.3 0 .3-.9 1.9-1.8 3.7-.9 1.8-1.7 3.9-1.7 4.8 0 .8-.4 1.5-1 1.5-.5 0-1 .6-1 1.2 0 2.7-7.9 20.3-9.2 20.4-.7 0-1.8.2-2.5.2-.6.1-6.7 5.7-13.5 12.5-6.8 6.7-15.4 14.9-19.3 18.2-3.8 3.3-7.8 6.8-8.9 7.7-1.1 1-2.5 1.8-3.2 1.8-.7 0-1.4.4-1.6.9-.4 1.2-10.3 6-15.7 7.7-7 2.1-18.2 2.8-23.8 1.5-6.2-1.5-9.2-3.9-10.9-8.6-1.1-3.3-1.1-4.3.2-6.8 1.8-3.4 11.7-13.5 18.9-19.2 2.8-2.2 5.2-4.2 5.5-4.5 1.8-1.8 12.1-9 12.9-9 .5 0 1.1-.3 1.3-.8.2-.4 2.4-1.8 5.1-3.2 8.2-4.3 14.8-11.4 14.2-15.3-.5-2.6-4.2-7.8-7.3-10.1-2.2-1.7-3.1-1.8-7.6-.9-2.8.6-7.6 2.2-10.6 3.6-9.4 4.3-12.4 5.3-16.4 5.6-3.8.3-3.8.2-3.2-2.5 1.9-7.5 25.6-29.7 40.4-37.6l3.2-1.8.1 4.2c.1 2.4.1 4.6 0 5-.3 2 5.1 4 8.8 3.4 14.4-2.3 27.9-16.7 28.5-30.4.3-6.3-.9-9.5-4.4-11.6-10.4-6.1-29.8-2.7-52.4 9.2-8.1 4.3-20.2 11.6-21.6 13.2-.3.3-2.3 1.9-4.5 3.5-10.8 8-21.9 23.1-25 33.7-1.7 6.1-1.6 12.9.4 20.8 1.8 6.9 3.2 9 7.9 11.7l4.3 2.6-6.6 3.9c-9 5.4-17.8 14.4-21.2 21.5-2.4 5-2.8 7-2.8 14.8 0 7.5.4 9.8 2.3 13.5 6.8 13.1 21.7 20.3 41.7 20.1 21.5-.1 40.3-6.8 60.4-21.3 4.7-3.4 8.8-6.4 9.1-6.7.3-.4 2.7-2.6 5.4-5l4.8-4.3 1.8 3.9c3.4 7.6 15.2 16.9 24 18.8 13.2 2.9 26.9-.6 42.1-10.6 5.1-3.4 5.9-3.7 9.5-2.9 2.1.5 5.7 1 8 1 4.9 0 6.8-1.8 13.8-13.8 2.7-4.6 4.9-8.2 5.1-8 .1.2 2.7 5 5.7 10.8 3 5.8 6.8 12.5 8.3 15 1.6 2.5 2.9 4.7 3 5 .1 2.4 21.9 31.8 32.5 44 7 8 26.8 27.4 33.3 32.5.6.5 4.4 3.5 8.2 6.6 10.5 8.3 27.5 19.8 40 26.9 9.9 5.6 30.8 16 32.2 16 .3 0 1.9.6 3.6 1.4 1.8.7 5.9 2.4 9.2 3.6 3.3 1.2 6.9 2.6 8 3.1 1.6.7 9.4 3 15 4.5 13.5 3.7 20.8 5.5 24 5.9 2.2.4 5.6 1 7.5 1.5 1.9.5 6 1.1 9 1.5 3 .4 7.1.9 9 1.2 8.5 1.2 13.9 1.5 36.5 1.6 20.8.1 30.9-.3 41.5-1.8 9.2-1.2 12.3-1.7 19-3 4.1-.9 8.4-1.7 9.5-1.9 1.1-.2 4-.9 6.5-1.6 2.5-.7 5.4-1.4 6.5-1.6 1.2-.2 4.8-1.3 8-2.4l6-2c0 .5 16.9-5.5 24.5-8.7 10.2-4.2 35.1-16.5 39-19.3 1.5-1.1 3.3-2 3.9-2 .6 0 1.1-.5 1.1-1 0-.6.4-1 1-1 1.1 0 23.2-14.8 27.1-18.2 1.5-1.3 4.4-3.7 6.5-5.3 10.8-8.4 20.6-17.7 36.9-34.9 1.1-1.1 4.9-5.7 8.5-10.1 3.6-4.4 6.8-8.2 7.1-8.5 1.3-1 19.7-28.8 23.3-35 5.2-9.2 15.6-30.3 15.6-31.8 0-.6.5-1.2 1-1.2.6 0 1-1 1-2.3 0-1.3.4-2.7.8-3.2 1.1-1.3 7.5-18.8 10.3-28.3 1.6-5.5 3-8.2 5.5-10.4 1.9-1.7 3.4-3.5 3.4-3.9 0-.7 5.5-10.5 9-15.9.5-.8 1.9-3.3 3.1-5.5 1.2-2.2 2.4-4.2 2.8-4.5.3-.3 1.3-1.8 2.1-3.5 2.6-5.1 23.2-35.6 32.1-47.5 27.3-36.4 47.7-59 53.3-59 1.6 0-1.3 7.2-6.3 15.5-6.9 11.6-19.3 35.8-22.8 44.5-4.2 10.5-4.6 11.4-4.9 12.5-.1.5-1.1 3.5-2.2 6.5-1 3-2 5.8-2.1 6.2 0 .5-.1.9-.2 1-.5 1.6-1 6.9-1.3 13.9-.7 17.2 7 28.8 22 32.8 6.2 1.7 18.7 1.9 24.3.4 4.7-1.2 15-5.8 16.1-7.2.3-.3 2.3-1.9 4.5-3.5s5.6-4.7 7.6-6.8c3.5-3.8 3.6-3.8 4.6-1.5 4.7 10.2 12.9 12.4 30.8 8.3 6.8-1.5 21.5-4.6 24-5 1.7-.2 3-.5 3-.6 0-.1.9-.3 2-.5 1.1-.1 3.4-.5 5-.9 3.9-.9 8.5-1.7 11-2.1 1.1-.1 2.7-.5 3.5-.8.8-.3 2.9-.8 4.5-1.1 3.4-.6 3.4-.6 17.5-4 23.4-5.7 27.6-7 28.9-9.5 1-1.9.3-12.3-.9-13.9-.2-.1-.3-.5-.4-1-.7-2.9-5-10.3-7.7-13.1-3.2-3.3-3.4-3.3-9.4-2.8-7.6.7-29.2 6-43.5 10.7-10.7 3.5-20.1 6.1-20.9 5.8-.6-.1.4-1.9 2.2-3.9 6.4-7.4 9.2-10.7 22.1-26.4 7.2-8.8 13.8-16.9 14.8-18 1.3-1.6 9.9-12.2 22.6-28 .4-.6 2.8-3.7 5.2-7 2.5-3.3 5-6.5 5.5-7.1.6-.6 1.9-2.3 3-3.8 2.1-3 7-9.4 8.3-11.1.4-.6 1.8-2.6 3.2-4.5 1.3-1.9 2.7-3.7 3-4 1.8-1.7 19-27.7 19-28.8 0-.6.3-1.2.8-1.4 1.9-.8 12-21.2 15.2-30.7 2.7-8.2 3.2-18.1 1.1-24.4-2.6-7.7-11.5-16.7-18.1-18.5-6.2-1.6-17.6-.7-26.5 2.2-4.9 1.6-19.9 8.8-20.3 9.8-.2.4-.8.8-1.4.8-2.8 0-20.7 13.9-30.9 24-13 12.9-20.1 21.5-28.1 34-4.9 7.6-10.7 19.3-11.2 22.4-.1.6-.4 1.5-.7 2.1-1.1 2.1-1 8.8.2 11.6 2.4 5.9 14.9 9.6 21.9 6.6 4.6-2 8.6-6.4 9.3-10.4 1.5-8 19.3-33.8 32.7-47.2 10.3-10.4 10.6-10.6 20.1-17.2 11.1-7.8 22.3-11.6 24.8-8.5 1 1.3.6 8.7-.7 9.5-.4.3-1.6 2.4-2.6 4.6-3 6.5-16.1 25.6-32.6 47.5-9.7 12.9-19 25.6-26.5 36-9.8 13.7-21.4 28.4-28 35.4-1.1 1.2-4.7 5.3-8 9.1-3.3 3.9-7.4 8.6-9.2 10.5-5.1 5.7-15.2 17.9-16.9 20.6-2.3 3.4-3.1 3-3.9-1.6-.9-5.4-3.5-8.5-6.3-7.6-1.2.4-5.7 5.1-9.9 10.4-12.9 16-27.3 29.9-34.3 32.9-3.3 1.4-9.6.8-11.5-1.1-2.1-2-3.4-9-2.5-12.9 2.1-8.4 7.5-20.9 22.5-52.2 17.6-36.7 20-42 23.1-51.2 3.5-10.4 2.5-14.8-4.3-20-3.3-2.5-4.4-2.8-11.2-2.7-16.1.1-35.1 10-51.3 26.6-11.6 12-24.4 28.2-37.1 47-1.7 2.7-3.6 4.8-4.1 4.8-.5 0-.3-.8.5-1.8.8-.9 2.4-3.5 3.6-5.7 1.1-2.2 3-5.6 4.1-7.6 1.1-1.9 3.1-7 4.6-11.3 7.1-20.4.2-35.9-15.9-35.9-6.3 0-12.4 2.7-22.8 10-7.9 5.5-8.2 5.5-9.1.3-1.7-10-10.1-37-15.1-48.5-.7-1.7-2.1-5-3.1-7.5-5.2-13.1-19.7-39.1-30.6-54.8-13.9-20-27.3-35.2-49.9-56.4-10.2-9.6-37.6-29.3-52.9-38.1-15.3-8.7-51.3-24.7-59.1-26.2-.9-.2-3.7-1-6.2-1.9-5.4-1.8-22.7-6.2-27.7-7.1-1.9-.3-4.2-.8-5-1-.8-.2-3.1-.6-5-.9-1.9-.3-4.4-.7-5.5-1-1.1-.2-4.9-.7-8.5-1.1-3.6-.4-8.1-1-10-1.2-4.1-.5-51.7-1.3-52.2-.9zm50.2 5.9c1.9.4 5.8.9 8.5 1.1 18.2 1.9 35.6 5.6 56 11.9 3.9 1.2 7.2 2.2 7.5 2.2.6.2 3.8 1.4 6.5 2.5 1.1.4 4.7 1.8 8 3.1 9.1 3.4 33.2 15 40.9 19.7 3.7 2.3 7.2 4.2 7.7 4.2s.9.4.9 1c0 .5.5 1 1.1 1 1.2 0 10.3 6 10.7 7.2.2.4 1 .8 1.7.8s1.5.4 1.7.8c.2.4 3.1 2.7 6.6 5.1 3.4 2.4 6.2 4.8 6.2 5.2 0 .5.5.9 1.1.9 3.4 0 37 32.9 48.4 47.5 1.7 2.1 3.5 4.3 4 4.9.6.6 2.2 2.7 3.5 4.6 1.3 1.9 2.7 3.7 3 4 1.4 1.2 14 20.7 14 21.7 0 .6.4 1.3.8 1.5.7.2 13.2 22.5 13.2 23.4 0 .2 1.8 4.1 4 8.9 5.7 12.2 15.4 39.4 14.8 41.5-.1.3.4 1.4 1 2.6.6 1.1 1.3 3.2 1.6 4.5.2 1.3 1 4.6 1.6 7.4 2.6 10.6 3 9.5-8.9 21.5-9.5 9.5-11 10.6-11.5 8.7-.3-1.3.7-4 2.8-7.6 8-13.4 9.1-17.1 6.5-23.4-1.2-2.8-1.5-2.9-5.8-2.3-11 1.4-9.5 2.7-14.2-12.4-4.6-14.9-11.1-30.6-18.3-44.5-6.5-12.3-16.4-28.7-17.8-29.3-.5-.2-.8-.8-.8-1.3 0-.8-10.9-15.6-13.6-18.5-.5-.6-2.6-3.1-4.5-5.4-3.5-4.5-23.4-24.6-28.5-29-1.6-1.4-5.1-4.3-7.9-6.5-2.7-2.2-5.2-4.2-5.5-4.6-2.7-3-37-25.5-37-24.3 0 .3-1.2-.3-2.7-1.4-4.7-3.3-26.9-13.4-37.8-17.2-2.7-.9-7-2.4-9.5-3.3-5.8-2-19.9-5.9-22.5-6.2-1.1-.2-3.8-.8-6-1.3-6.1-1.7-17-3.4-29.5-4.9-9.5-1-50.3-1.1-59.5 0-11.4 1.3-13.9 1.6-16.5 2.2-1.4.3-3.7.7-5.2 1-1.6.3-4.3.8-6 1.1-1.8.4-4.1.7-5 .8-1 0-1.8.4-1.8.9 0 .4-.4.5-1 .2-.5-.3-1.8-.2-2.7.4-1 .5-3.1 1.1-4.8 1.4-6.1 1-28.8 8.7-38.5 12.9-47.6 20.9-85.9 50.9-117.1 91.8-9.9 12.9-26.2 39.4-27.5 44.7-.4 1.3-1 2.3-1.5 2.3s-.9.8-.9 1.8-.4 2.2-.9 2.7c-2.3 2.3-15.8 39.4-17.5 48-.2 1.1-1 4.2-1.7 6.9l-1.2 4.8-1.2-2.9c-2.6-6.2-10.2-8-18.4-4.3-2.4 1.1-4.5 2-4.7 2-1.7 0 9.4-38.8 13.6-47.5 1.1-2.3 3.1-7.8 3.2-8.5 0-.3.6-1.6 1.3-3 .8-1.4 4.1-8 7.4-14.6 5.4-10.9 18.2-33.1 21.7-37.3.7-.9 4.3-5.7 8-10.6 3.7-5 9-11.7 11.8-15 6.8-8.1 26.6-27.9 34.6-34.6 3.5-3 7-5.9 7.6-6.4 10.1-8.7 37.2-26.4 50.4-33l11-5.5c3-1.6 6.3-2.9 7.3-2.9.9-.1 1.7-.6 1.7-1.1 0-.6.6-1 1.3-1 .7 0 5.1-1.6 9.7-3.5 7.4-3.1 24.3-8.8 29.7-10 1-.2 4.7-1.2 8.3-2 12-3 12.6-3.2 17.5-3.9 2-.4 4-.8 4.4-1 .3-.2 3.5-.7 7.1-1.1 3.6-.4 7.2-.8 8-1 .8-.2 5.1-.6 9.5-1s8.1-.8 8.3-.9c.5-.6 44.7.2 48.2.7zm1 31.1c1.9.3 5.3.8 7.5 1.1 11.9 1.5 14.8 2.1 27.5 5.1 5.8 1.4 11.2 2.6 12 2.9 3.1.7 20.6 6.6 22.5 7.4 1.1.5 4.7 2 8 3.2 10.8 4.1 34.4 16.7 47.8 25.5 7.3 4.8 13.7 9.2 14.2 9.8.6.6 2.6 2.3 4.5 3.6 1.9 1.4 4.4 3.4 5.6 4.5 1.2 1.1 4.5 4 7.3 6.4 9.4 7.9 24.6 23.9 34 35.7 6.6 8.3 19.1 26.6 19.1 28 0 .7.4 1.4.8 1.6 1.8.7 12.4 21.2 20 38.8 2.8 6.5 11.2 32 11.2 34.2 0 .9-1.2 2.4-2.7 3.2-1.6.8-4 2.7-5.5 4.3-4.9 5.2-22.5 42.3-32.8 69.1-1.7 4.5-3.6 8-4.1 7.7-.5-.4-.9-1-.9-1.5s-2.3-4.5-5-8.9c-2.8-4.5-4.7-8.2-4.3-8.2.5-.1 3.7-.2 7.3-.4 3.6-.1 6.6-.3 6.7-.4.4-.2-3.5-7.1-9.3-16.6-3.1-4.9-5.8-10.5-6.1-12.5-.8-5-3.8-10.5-7-12.9-5-3.7-6.2-5.2-23.6-29.6-9.4-13.2-17.4-24.2-17.7-24.5-.3-.3-3-4.1-6-8.5s-6.2-8.9-7.2-9.9c-1-1.1-2-2.8-2.4-3.8-.3-1-1-1.8-1.5-1.8s-.9-.5-.9-1c0-.6-.9-2-2-3.2-1.1-1.2-2-2.5-2-3 0-.4 2.1-1.8 4.7-3 5.7-2.7 11.4-8.2 14.5-14 3.2-6.3 3.3-19.6 0-25.9-3.3-6.4-8.2-11.3-14.3-14.5-4.4-2.2-6.7-2.7-12.9-2.7-4.1 0-8.8.6-10.5 1.3-1.6.7-3.3 1.2-3.8 1.2-.4-.1-3.2 2.2-6.2 5.1l-5.5 5.3-9.7-13.6c-5.3-7.4-10-13.7-10.5-13.8-.4-.2-.8-.8-.8-1.3s-1.7-3.2-3.7-6l-3.8-5-1.8 2.3c-1 1.3-2.7 3.3-3.8 4.6-1 1.2-1.9 2.6-1.9 3.1s-.3 1.1-.8 1.3c-.7.3-8.7 10.5-13.5 17.3l-1.9 2.6-36-36.1c-19.8-19.8-36.4-36-36.8-36-.5 0-15.7 14.8-33.8 33-18.1 18.1-33.4 33-34 33-.6 0-1.2-.4-1.4-.9-.1-.4-1.6-2.5-3.3-4.6-14.1-17.7-16.7-21.1-17.1-21.4-.6-.6-1.2.3-16.1 21.9-7 10.2-14.1 20.4-15.8 22.6-4.3 5.9-2.2 2.9-28.9 42.4-5 7.4-9.3 13.7-9.7 14-.3.3-1.5 2.2-2.8 4.3-1.3 2.1-2.8 4.3-3.4 5-.7.6-4.3 5.9-8.2 11.7-3.8 5.8-7.4 11-8 11.6-.5.6-1.9 2.7-3 4.7s-2.3 3.7-2.7 3.7c-.5 0-.8.7-.8 1.5s-.4 1.5-1 1.5c-.5 0-1 .5-1 1 0 .6-.5 1.6-1 2.3-3.2 3.8-17.8 25.7-17.2 25.9.4 0 5 .2 10.2.3 5.7.1 9.4.6 9.3 1.2-.1.5-1.9 3.8-4 7.2-2.1 3.4-4.3 7-4.8 7.9-7.9 13.4-13.1 21.8-13.5 22.2-.4.3-1 1.4-1.4 2.5-.7 1.9-.9 1.8-2.8-.8s-2.4-2.8-7.2-2.2c-2.8.4-6 1.2-7.1 1.8-1.1.6-2.2 1-2.5.9-1.6-.3-9 4-11.7 6.9-3.1 3.3-11.6 19.4-14.3 27-1.3 3.6-1.4 3.6-6.5 3.6-6.4 0-10.8 2.3-14.1 7.2-4.6 7.1-3.2 16.1 3.5 21.7 2.3 2 2.4 2.3 1 4.5-.9 1.3-2.3 4.2-3.1 6.4-3.2 8-6 13.7-6.4 13.2-.6-.5-4.1-14.4-4.9-19.2-.3-1.7-1.1-5.5-1.7-8.5-.6-3-1.2-6.6-1.3-8-.1-1.4-.5-4.1-.8-6-1.9-10.4-2.6-22.2-2.6-42.5.1-20.2.1-21.5.9-21.6.3-.1 1.7-.3 3.1-.4 7.4-.9 18.7-9.9 22.2-17.8 1.4-3.3 2.9-3.6 2.2-.5-2.1 9.7-4.1 50.5-2.7 54.5.2.7 1.4 1.3 2.6 1.3 2.2 0 2.3-.3 2.3-10.8 0-10.7 1-32.2 1.7-35.9.3-1.1.7-4.4 1.1-7.3.7-5.1.9-6.6 2-12 .2-1.4.7-3.6.9-5 .3-1.4.8-3.6 1.1-5 .3-1.4.8-3.6 1.1-5 .5-2.8 5.1-18.6 6.1-21 .3-.8.7-2.1.9-2.7.5-2.4 5.7-15.8 8.6-22.3 6.5-14.1 8.9-18.8 13.7-26.9 2.8-4.6 5.1-8.6 5.1-8.8 0-.3 3-4.8 6.7-10.1 14.2-20.4 27.6-35.5 45.8-51.7 5-4.4 11.5-9.8 14.5-12 3-2.1 5.9-4.5 6.3-5.2.4-.7 1.4-1.3 2.2-1.3.7 0 1.5-.3 1.7-.8.5-1.1 6.6-5.2 7.8-5.2.5 0 1-.4 1-.8 0-.5 1.5-1.6 3.3-2.5 1.7-1 5-2.8 7.2-4.2 5.5-3.4 28.4-15 31.5-16 1.4-.4 4.3-1.6 6.5-2.6 8.6-3.9 35.6-12 48-14.4 1.7-.3 4.1-.7 5.5-1 1.3-.3 4-.7 6-1 2-.3 4.5-.7 5.6-.9 1.1-.2 6-.7 11-1.1 4.9-.4 9-.9 9.2-1 .6-.5 43.6.3 47.2.9zm-21.5 46.5c11.8 11.8 21.5 21.7 21.5 22 0 .3-3.2 4-7 8.1l-6.9 7.4-2-2.2c-1-1.3-3.4-4.1-5.3-6.4-1.8-2.3-3.7-4.6-4.3-5.2-.5-.6-2.5-2.8-4.2-4.9L772 559l-4.2 6c-3.9 5.4-6.8 7.6-6.8 5.1 0-.5-.6-1.6-1.3-2.3-.7-.7-2.6-3-4.2-5.1l-2.8-3.8-2.4 2.5c-1.2 1.4-2.3 2.7-2.3 3 0 .6-6.2 9.8-7.1 10.6-.3.3-1.1 1.5-1.8 2.7-1.4 2.8-2.2 2.8-4.8.5-1.1-.9-3.5-2.8-5.3-4.2-1.9-1.4-5-3.9-7.1-5.6l-3.8-3.2 21.5-21.6c11.9-12 21.8-21.6 22-21.4.2.2 10 9.9 21.9 21.7zm-100.2 33.8c13.5 17.1 12.8 15.3 7.6 20.4-8.1 7.9-7.2 7.8-13.3 1.5-3-3.1-5.9-5.6-6.3-5.6-.4 0-3.6 2.7-7 6s-6.6 6-7 6c-.5 0-2.8-2-5.2-4.4-4.2-4.3-4.3-4.4-2.7-7.2.9-1.6 4.3-6.7 7.6-11.4 3.4-4.7 6.8-9.6 7.7-11 5.3-7.8 6.6-9.1 7.8-7.8.7.7 5.5 6.8 10.8 13.5zm183.8-.2c4.3 6 8.3 11.7 8.9 12.5.6.8 3.2 4.5 5.8 8.2 14.9 21.3 22.2 31.7 22.2 32.2 0 .2-2.7 2.1-6 4.1-3.3 2-6.7 4.3-7.5 5.1-1.9 1.9-2.5 1.5-6.1-3.8-1.5-2.4-3.8-5.5-4.9-6.9-1.1-1.4-3.3-4.3-5-6.5-1.6-2.1-4.5-5.5-6.2-7.4l-3.3-3.5-3.7 4c-3.5 3.7-6.9 8.1-14.6 18.7l-2.8 3.7-3.7-2c-2-1.2-5.6-3.2-7.8-4.5l-4.2-2.5-7.2 5.1c-6.1 4.1-7.6 4.8-8.9 3.7-2.7-2.2-5.1-4.7-5.1-5.4 0-.5 14.4-20 18.3-24.8.4-.6 7.4-9.8 15.4-20.5 17.3-23.2 17.6-23.6 18.2-21.9.2.7 3.9 6.3 8.2 12.4zm-106.7-.1c1 1.4 2.2 2.6 2.5 2.6.4 0 2.6-2.7 5-6s4.7-6 5.1-6c.4 0 4.5 4.6 9 10.2 4.6 5.7 8.5 10.5 8.8 10.8.2.3 4.6-4 9.9-9.4l9.4-9.9 10.8 10.8 10.8 10.9-13.1 17.5c-7.2 9.7-13.5 18-13.9 18.6-.5.5-13.8 18.3-29.7 39.5-28.6 38.3-28.8 38.5-26.8 40.5l1.9 2 1.5-2c.8-1.1 2-2.7 2.7-3.5.6-.8 3-4 5.2-7 2.1-3 4.2-5.7 4.5-6 .3-.3 2.3-3 4.5-6s4.2-5.7 4.5-6c.3-.3 6.6-8.6 14-18.5s14-18.6 14.7-19.3c.7-.7 1.3-1.8 1.3-2.3 0-2 2.6-.7 6.6 3.2l4.2 4.2 7.9-5.6c6.9-4.8 8-5.3 9.8-4.2 1.1.7 3.9 2.4 6.2 3.9l4.2 2.6-4.1 6.7c-15.4 25.3-25.4 56.7-25.7 81.4l-.1 4.6-7-.3c-4.5-.1-9 .4-12.7 1.5-7.4 2.3-14.3 5.4-14.3 6.3 0 .5-.6.8-1.4.8-2.3 0-17.4 11.8-25.7 20.1-8.7 8.8-17.6 19.5-23.8 28.7-3.5 5.1-4.5 6.1-5.7 5.1-.7-.6-1.2-1.5-.9-1.9.3-.5.2-1-.3-1.2-.8-.3-14.2-22.2-14.2-23.2 0-.3 3.4-.6 7.5-.6h7.4l-5.6-9.7c-3.6-6.1-5.3-9.8-4.5-10.1.7-.2 1.2-.8 1.2-1.4 0-.6 2-4.4 4.5-8.5 2.5-4 4.5-7.6 4.5-7.8 0-.2 1.4-2.8 3.1-5.7 4.3-7.2 18-34 20.8-40.8 1.3-3 3.4-7.6 4.6-10.2 1.2-2.5 2.5-5.8 2.9-7.3.4-1.4 1.1-2.3 1.5-2 1.4.8 4.1-2.4 3.5-4-.4-.8-1-1.5-1.4-1.5-.4 0 .4-3.3 1.7-7.3 3.7-10.9 4.3-13.8 4.8-22.5.5-10.6-3-17.3-11.2-21.3-7.4-3.6-15.5-3.2-24.2 1.3l-6.9 3.5-5.6-6.8c-3.1-3.8-5.6-7.3-5.6-7.9 0-.5-.4-1-.8-1-.6 0-3.9-4-9.9-12.1-1-1.4.1-2.9 7.3-10.3 6.8-6.9 8.8-8.4 9.8-7.4.7.7 3 2.6 5.1 4.3 2.1 1.6 6.4 5 9.4 7.4 3.1 2.4 6.2 4.9 6.9 5.4 1.6 1.3 3.1-.3 10.1-11.2l5.5-8.3 3 3.5c1.7 1.9 4 4.7 5 6.1zm168.3 17.4c10.5 10.4 10 27.3-.9 36.7-4.7 3.9-11.3 6.2-13.4 4.4-.8-.6-1.4-1.5-1.4-2s-.6-1.7-1.4-2.6c-3.2-3.9-8.6-11.3-8.6-11.8 0-.3-.7-1.3-1.5-2.2-3.8-4.7-11.5-15.9-11.5-16.8 0-1.8 6.1-7.5 10.4-9.7 9.4-4.8 21.2-3.2 28.3 4zm-225.9 8.4c2.3 2.9 4.5 5.7 5 6.3.4.5 2.4 3.1 4.4 5.6l3.8 4.6-2.3 2c-18.1 16.1-50.4 67.4-66.6 105.8-.5 1.1-1.6 3.6-2.4 5.5-2 4.8-9.3 25.4-10.2 29-.1.3-.4 1.2-.8 2-.7 1.7-6.8 22.4-7.1 24.3-1.3 6.8-4.2 17.7-4.7 17.7-.3 0-1.8-2.2-3.3-5-1.5-2.7-3.1-5.2-3.6-5.5-1.5-.9-1.1-5.4.9-11l1.7-4.9 5-.1c5.8-.1 5.9-.4.3-9.2-2.1-3.4-3.9-6.7-3.9-7.2s-.3-1.1-.7-1.3c-.7-.3-20.3-32.1-20.3-32.9 0-.3 4.5-.4 10-.3 10.2.1 12-.7 8.5-3.6-.8-.7-1.5-1.8-1.5-2.5 0-.8-.4-1.5-.8-1.7-.4-.2-4.1-5.3-8.2-11.3-4-6.1-9.7-14.4-12.6-18.6l-5.3-7.6 6.1-8.9c12.1-17.8 14.3-20.9 14.8-21.4.3-.3 3.2-4.6 6.5-9.5 3.3-5 6.2-9.2 6.5-9.5.3-.3 3.4-4.8 7-10 12.1-17.9 14.3-21.1 15-21.5.4-.2 3.5 2.3 6.9 5.6 7.1 7 5.8 7.2 15.1-2.5l4.7-4.9 6.1 6.3 6.2 6.2 7.2-7.5c4-4.1 7.6-7.5 7.9-7.6.3 0 2.4 2.3 4.7 5.1zm171.8 29.1c2.4 3.1 4.4 6.2 4.4 6.7 0 .6.5 1 1 1 .6 0 1 .6 1 1.4 0 .8.4 1.6.9 1.8 1.9.7 15.6 26 20.1 37.3 3.6 8.9 7.5 22.3 8.6 29 .3 2.2.9 5.8 1.3 8.1 1.4 7.4.8 13.5-1.4 14.8-1 .6-2.4 1.5-3.1 2.1-5.6 4.9-9.4 8.3-12 10.7l-3.1 2.9-.1-6.8c0-11.1 0-11-2.4-10.8-2.2.2-2.3.6-2.8 12.1l-.5 11.9-6.8 8.5c-3.8 4.7-7.5 9.3-8.3 10.3-.8.9-1.4 2.1-1.4 2.6s-.6 1.3-1.3 1.9c-1.1.9-1.3-4.1-1.2-28.1 0-17.3.4-29.9 1-30.8.6-.9 6-6.9 12.2-13.4 10.9-11.4 11.1-11.7 9.2-13.6-1.8-1.8-2-1.8-6.3 2.9-8.5 9-15.5 16.2-15.9 16.2-.2 0-.3-14.3-.2-31.8 0-17.4-.1-32.3-.3-33-.2-.6-1.4-1.2-2.7-1.2h-2.3l.2 47.1.1 47.1-3.9-4.4c-2.1-2.3-5.5-6.3-7.5-8.8l-3.6-4.6.1-10.2V701h-2.7c-2.6 0-2.7.1-2.5 5.7.2 3.2.1 6.3-.2 7-.2.7-2.2-1-4.4-3.8-4-5.1-5.3-5.6-7.2-2.6-.8 1.3-.6 2 .9 3.1 1.1.9 1.6 1.6 1.2 1.6-.4 0 .2 1 1.5 2.2 1.3 1.3 5.2 5.9 8.8 10.3 3.5 4.4 6.7 8.2 7 8.5.3.3 2.7 3.2 5.4 6.5s5.5 6.4 6.1 7c1.3 1.1 1.5 41.9.2 43.1-.4.5-4.1-2.5-8.1-6.6l-7.3-7.5.6-6c2-19.5-8.8-31.2-25.3-27.5-3.2.7-3.5.5-4.1-1.9-.8-3-.7-15.3.1-20.8.8-5.9 2.5-15.7 2.8-16.8 3.6-12.9 5.9-19.9 9.2-27.2 4.3-9.7 6.9-14.8 7.7-15.1.4-.2.7-1 .7-1.7 0-2.3 18.8-30.3 24.3-36.2l2.2-2.3 2.8 3.2c1.6 1.8 4.8 5.9 7.3 9.1zm35.3 5.4c4.2 5.8 20.1 27.9 22.1 30.8 1.2 1.6 6.7 9.4 12.3 17.2 21.6 30.2 26.2 36.7 26.1 37.3-.1.3-1.8.8-4 1.1-3.3.6-4.2.3-6.5-2.1-6.2-6.2-20.4-5.7-34.1 1.1-7.5 3.8-7.3 3.8-7.5-.2-.1-1.9-.5-5.2-.8-7.4-.3-2.2-.8-5.1-1-6.5-.2-1.4-.4-2.5-.5-2.5-.2 0-.5-1.6-1.3-5.6-2.1-10.6-12.3-35.6-20.1-48.9-2-3.4-3.5-6.4-3.3-6.7 1.1-1.1 15.3-10.2 15.9-10.3.4 0 1.6 1.2 2.7 2.7zm-178 3.5c1.4 3.8-2.1 16-8.4 29.6-1.4 2.9-2.5 5.5-2.5 5.9 0 1.6-24.8 49.4-26.1 50.3-.4.3-5.7 8.8-11.8 19-6.1 10.2-11.4 19-11.8 19.6-2.7 3.5-3.2 5.3-1.8 5.6 1.1.2-1.1 4.6-7.6 15.3-11.1 18.5-12 19.8-12.5 19.3-1.3-1.4 13.1-52.2 17.1-59.8.7-1.4 1.7-3.6 2.3-5 1.5-3.8 15.6-32.4 16.2-33 .3-.3 2.1-3.7 4.1-7.5 5.7-10.8 7.4-14 7.9-14.5.3-.3 1.2-1.9 2-3.5.8-1.7 1.7-3.2 2-3.5.8-.8 2.9-4.3 4.2-7 2.6-5.4 16.3-25.5 19.8-29.1 4.3-4.5 5.7-4.8 6.9-1.7zm-138.7 59c4.6 6.8 8.5 12.7 8.7 13.3.2.5.7 1.2 1 1.5 1 .7 5.1 6.7 5.1 7.4 0 .3-4.5.7-10 .8l-9.9.3 4.7 7.8c2.6 4.3 5.5 9.1 6.4 10.5 1 1.5 2.3 3.9 2.9 5.4.6 1.6 1.5 2.8 1.9 2.8.4 0 1.3 1.2 1.9 2.7.6 1.6 2.2 4.5 3.6 6.5l2.4 3.7-4.2-1.9c-8.2-3.6-20.2-.7-33.6 8.1-7.4 4.9-7.5 4.9-15.3 4.8-7.8-.1-8.9-.6-6.5-3.1 1.3-1.4 28.7-46.5 28.7-47.3 0-.2-4.5-.6-10-.7l-10-.3 4.7-7c2.6-3.9 5.1-7.2 5.5-7.3.4-.2.8-.8.8-1.3 0-1 6.2-10.3 7.3-10.7.4-.2.7-1 .7-1.8s.5-1.4 1-1.4c.6 0 1-.5 1-1 0-.9 2-3.8 2.7-4 .2 0 4 5.5 8.5 12.2zm509.9 33.4c1.9 2.3-.1 10.3-5.7 22.9-1.2 2.8-2.6 6.3-2.9 7.8-.8 3.2-2.4 4.5-2.3 2 .1-3.5-1.2-21.9-1.7-25.4-.6-3.2-.3-3.9 2.2-5.6 5.1-3.6 8.4-4.1 10.4-1.7zm-48.8 10.2c-.4.9-1.3 2.3-2.1 3.1-.7.8-2 2.4-2.9 3.7-.8 1.3-1.9 2.4-2.4 2.4-.4 0 .8-2.4 2.7-5.2 1.9-2.9 3.4-5.6 3.4-6.1 0-.4.4-.6 1-.2.5.3.6 1.3.3 2.3zM945 744.9c0 3 3.3 6.3 6.7 6.6 1.7.1 3.6.5 4.2.9 1.4.9 1.4 7 0 11.6-.5 1.9-1.2 4.2-1.4 5.1-1.2 5.5-10.1 24.3-16.6 35.2-1.6 2.6-2.9 4.9-2.9 5.1 0 .9-9 13.9-14.1 20.4-5.2 6.5-17.7 19.2-19.1 19.2-.4 0-1.3.6-2 1.2-6.2 5.8-15.7 9.6-19.5 7.9-2.6-1.2-5.3-6.6-5.3-10.7 0-1.4 1.1-4 2.5-5.8 1.4-1.7 2.9-3.6 3.3-4.1 5.8-7.4 21.2-33.4 21.2-35.9 0-.7.4-1.6.9-2.2 2.1-2.1 10.3-24.7 11.7-32.1.4-2.1 2.2-4.5 5.2-7.2 2.6-2.3 5.4-4.7 6.2-5.5 4-3.6 16.4-11.5 18.3-11.6.4 0 .7.9.7 1.9zm140.7.9c.6 4 1.4 17.4 1.4 26.2.1 7-.4 10.5-1.7 13.5-1 2.2-1.8 4.2-1.9 4.5 0 .3-.7 1.6-1.5 3-.7 1.4-1.3 2.6-1.2 2.7.1.2-.6 2-1.5 4-.8 2.1-2 4.9-2.6 6.3-.6 1.4-1 2.8-.9 3.2.1.5-.2.8-.8.8-.5 0-1 .6-1 1.2-.1.7-.7 2.6-1.4 4.3l-1.3 3-1.7-3.3c-3.8-7.4-13.9-10.6-21.7-6.9-5.4 2.6-8.1 6.9-8.5 13.7-.4 5.1-.1 6.1 2.7 9.9 4.5 6.2 11.7 8.6 18.3 6.1 1.4-.5 2.6-.8 2.6-.6 0 .3-1.4 3.9-3.1 8.1-1.7 4.2-2.8 8.3-2.5 9 1 2.6 5.2 4.5 11.5 5.1 6 .7 6.2.8 5.8 3.3-.2 1.4-.6 3.3-1 4.1-.3.8-1.1 3.3-1.7 5.5-.6 2.2-1.5 4.9-2 6-.4 1.1-2.7 6.9-5 13-4 10.5-13.3 30-17.8 37.5-1.2 1.9-2.9 4.9-3.7 6.7-.9 1.8-2.3 3.7-3.1 4.4-.8.6-1.4 1.6-1.4 2.1 0 1.5-12.3 18.8-21.4 30.3-8.6 10.7-31.8 34.5-40.1 41-2.7 2.2-5.7 4.6-6.5 5.4-2.3 2.3-19.3 14.7-22 16.1-1.3.7-2.9 1.7-3.4 2.1-2.9 2.4-14.1 9.1-22.3 13.5-2.7 1.3-5.5 2.9-6.3 3.4-10.7 6.8-54.7 22.9-69.9 25.5-1.9.3-3.7.7-4 .9-.3.2-2.4.7-4.6 1-2.2.4-4.7.8-5.5 1.1-.8.2-3.2.6-5.2.9-8.5 1.3-11.4 1.7-13.8 2.2-10.7 1.8-52.3 2.5-65.5 1.1-12-1.3-16.1-1.8-18.5-2.2-1.4-.3-3.4-.7-4.5-.9-32-5.6-56-13.2-83.5-26.4-14.5-6.9-26-13.4-38-21.5-9.2-6.1-13.3-9-14-9.7-.3-.3-3.6-3-7.5-6-16.6-13-33.6-30-51-51.1-14.2-17.1-39.5-60.3-38-64.9 1-3.3 20-31.4 32.7-48.4l12.3-16.5 20.5-.1c11.3 0 21.1.4 21.9.9 1.1.7 1.4 5.4 1.4 23.5 0 12.5-.3 22.9-.6 23.2-.3.3-15.9.6-34.7.5h-34.1l.7 2.2c.9 2.9 9.1 19.6 13.3 27.2 6.4 11.4 15.4 24.8 24.8 37 9.6 12.3 31.1 34.1 43.3 43.9 4.7 3.7 9.3 7.3 10.2 8.1 4.1 3.3 23.1 15.6 31.3 20.2 9 5 25.8 13.3 26.9 13.3.3 0 2.5.9 4.9 1.9 10.6 4.8 40.7 14 51.6 15.7 1.8.3 4.3.8 5.5 1 1.1.3 3.9.7 6.1 1 2.2.3 5.1.8 6.5 1 14.1 2.6 65.3 2.5 77.4-.1 1.1-.2 3.8-.7 5.9-1 6.2-.8 18.8-3.5 24.7-5.2 3-.8 6.4-1.7 7.4-1.9 3-.6 14.8-4.4 18.3-6 1.7-.8 3.6-1.4 4.3-1.4.6 0 3-.8 5.3-1.9 4.6-2 7.9-3.4 8.7-3.5 2.6-.7 23.1-11.5 33-17.4 21.9-13.1 37.6-25.5 56-44.3 13.4-13.6 13.1-13.2 20.3-22.4 2.6-3.3 5.4-6.7 6.1-7.6 2.7-3.3 16.5-24.6 19.6-30.4 5.7-10.4 14-27.7 14-29.1 0-.2-9.6-.3-21.2-.3h-28l-6.8-.1v-9.6c0-8.8.1-9.5 1.8-8.8 2.3 1.2 15.6.8 17.9-.5 1-.5 3.8-4.1 6.3-8l4.5-7 4.8-.1c3.5 0 4.7-.4 4.7-1.5 0-.8-.4-1.5-.8-1.5-.5 0-1.6-1.6-2.5-3.5-1.7-3.5-1.6-3.7.9-9.1 6.2-13.2 28.3-50 31.4-52.4.4-.3 1.2-1.5 1.9-2.8 1.9-3.6 2.7-2.6 2.5 3.1-.3 5-.2 5.3 2.1 5.5 2.8.2 2.7.7 2.9-11.4l.2-8 7.8-10c10.2-12.9 15-18.4 15.5-17.8.3.2.6 1.2.8 2.2zM993 758.2c0 .6.9 2.3 2.1 3.9 1.4 2.1 1.7 2.9.7 3-8.1.4-7.8.5-7.3-2.1 1.4-7.5 1.6-8.1 3.1-6.9.8.6 1.4 1.6 1.4 2.1zm-283.2 4.1c1.4 1.6 1.4 1.9.2 2.8-.8.5-2.1.7-2.8.4-.8-.3-2.3-.5-3.5-.5-1.2 0-1.7-.4-1.2-.8.6-.4 1.9-2 2.9-3.7 1.4-2.1 2.1-2.5 2.4-1.5.3.8 1.2 2.3 2 3.3zm408.3 0c-1 .9-1.1.8-.5-.6.3-1 .9-1.5 1.2-1.2.3.3 0 1.1-.7 1.8zm-316.5-.5c-1 1.6 3.3 7.2 5.6 7.3 1.3.1 2.9.2 3.7.3 3.1.3 3.5 5.5 1.1 14-1.2 4.5-2.9 9.1-3.6 10.3-.8 1.2-1.4 2.7-1.4 3.2s-1.3 3.8-3 7.3c-2.3 5-2.9 5.7-3 3.6 0-2.2-.4-2.6-2.1-2.3-3.1.6-3.1.6-3.3 8.3-.1 7-.6 8.1-5.3 13.1l-2.3 2.4-.1-5.2c-.1-9.3 0-17.1.1-17.9.1-.4.1-1.9 0-3.3-.1-1.9 1.4-4.2 5.9-8.9 5-5.2 5.8-6.6 5-8.1-1.4-2.7-2.3-2.4-6.9 2.3l-4 4.2-.1-3.9c-.2-13.9 0-19.8 1-20.8 3.2-3.2 14.2-8.3 12.7-5.9zM703 777.3c0 .4 1.6 3.1 3.5 6 1.9 2.8 3.5 5.7 3.5 6.4 0 .6.4 1.3.8 1.5.7.3 7.2 11 7.2 11.9 0 .2-3.6.3-7.9.2-9.2-.2-9.1-.9-2.4 10.2l4.3 7.1-2 5.4c-2.2 5.9-2.3 6.2-4.3 15.5l-1.3 6-21.7.1c-11.9 0-21.7-.1-21.7-.2 0-.4 9.6-16.4 12.1-20.2 1.6-2.3 2.9-4.4 2.9-4.7 0-.2 2.5-4.4 5.5-9.4s5.5-9.3 5.5-9.6c0-.4-1-.6-2.2-.5-6 .5-6 .4-.3-8.5 3-4.7 5.5-8.7 5.5-9 0-.3 1.5-2.7 3.4-5.3 1.8-2.7 3.7-5.9 4.1-7.2l.8-2.4 2.3 2.9c1.3 1.7 2.4 3.4 2.4 3.8zm79.7 12.2c0 9.1-.4 16.5-.9 16.5-.4 0-.8-.4-.8-.8 0-.5-.8-1.7-1.8-2.8-1.2-1.3-1.8-3.5-1.7-6.9 0-4.7-.2-5-2.5-5-1.5 0-2.4.5-2.2 1.2.3 1.6-1.4 1.7-2.3.2-.5-.7-1.4-.3-2.7 1.1-1.9 2.1-1.9 2.1.9 5.3 1.5 1.8 4.3 5.2 6.1 7.4 1.8 2.3 4.4 5.3 5.6 6.8 2.1 2.4 2.3 3.7 2.3 12.1 0 5.2-.3 9.4-.6 9.4s-3.9-3.4-7.9-7.5c-4.1-4.1-7.7-7.5-8.2-7.5-.4 0-1.3.7-2 1.6-1.2 1.3 0 2.9 8.4 11.3l9.7 9.7-3.8 4.9c-6.8 8.8-25 25.5-27.9 25.5-.3 0-1.8.8-3.2 1.8-3.8 2.6-10.3 2.8-12.3.5-2.5-2.8-3.6-7.3-3.3-13.3.3-7.8.3-8 1.2-7.9.4.1 1.7.1 3 0l2.4-.1-2.2-3.5c-1.9-3-2-3.9-1-7.6.6-2.3 1.5-4.9 2-5.8.4-.9 2.7-5.7 5-10.6 5.4-11.2 12.6-22.9 19.3-31.5 5.3-6.6 19.4-21 20.7-21 .4 0 .7 7.4.7 16.5zm204.8-14.6c.6 1.1 3.6 6.4 6.8 11.8 5.7 9.4 5.8 9.8 4.7 13.3-1.2 3.5-1.4 3.6-5.6 3.4-2.4-.2-4.6 0-4.8.4-.3.5.8 2.9 2.4 5.4l2.9 4.6-5.4 16.2c-2.9 8.8-5.6 16.4-6 16.8-.7.8-33.2 1.2-35.2.4-.8-.2-.9-.8-.2-1.5.5-.7 5.9-9.3 12-19.2 11.4-18.6 22.6-40.5 25-48.8 1.5-5.2 2-5.6 3.4-2.8zm-81.1 1.8c-3.1 12.2-22.3 49.6-27.9 54.3-.8.7-1.2 1.6-.9 2.1.3.5 0 .9-.6.9-1.1 0-.9-2.8.4-6.5 4.6-12.6 6.5-17.2 10.4-24.5 4.4-8.5 12.3-21.2 14.5-23.5.7-.7 1.9-2.2 2.7-3.4 1.9-2.8 2.2-2.7 1.4.6zM560 779.6c0 .1-2.5 2.7-5.5 5.9-3.1 3.2-7.3 7.8-9.3 10.3-2 2.6-4.4 5.4-5.2 6.3-2.4 2.7-5 6.2-6.8 9.1-2.4 4.2-3.5 3.4-1.3-1 3.7-7.4 8.9-18.9 11-24.7l2.2-6h7.4c4.1 0 7.5.1 7.5.1zm298 16.2c0 .4-1.6 4.8-3.5 9.7-2 5-3.5 9.2-3.5 9.5.1.5-1.7 7.9-2.6 11-.4 1.1-.8.9-1.7-.7-.7-1.2-3.3-5.7-5.9-10.1l-4.8-7.9 2.4-5.9c1.3-3.2 3.2-8.6 4.1-11.9 1-3.3 2-6.4 2.2-6.8.5-.8 13.3 11.8 13.3 13.1zm-279.8.9c-.4 1-1.9 4-3.4 6.8-5.1 9.9-7.3 21.9-4.7 26.7.6 1.1.8 2.3.4 2.6-.8.9-26.5.9-26.5.1 0-.5 7.5-10.5 9-11.9.3-.3 3.2-3.7 6.4-7.5 6.4-7.5 17.5-18.5 18.8-18.5.4 0 .4.8 0 1.7zm36.9 9.5c2.4 4 4.7 7.4 5 7.6.4.2.3 1.6-.1 3.3-.5 1.6-.9 3.2-.8 3.4.1 2.2-1.5 12.5-2 12.6-3.1.5-22.4.3-22.8-.2-.2-.4 1.4-4 3.6-8 4-7.6 7.3-14.2 10.5-21.7 1-2.3 2-4.2 2.1-4.2.1 0 2.1 3.3 4.5 7.2zm-153.6 4.9c.3 3.5.7 7.1 1 7.9.2.8.7 3.7 1.1 6.5 1 8.1 1.2 9.2 1.8 11.2.3 1 .8 3.4 1.1 5.3.3 1.9 1.9 8.8 3.6 15.2l3 11.7-4.1 9.6c-2.3 5.2-4.6 9.5-5 9.5-.5 0-1.2.9-1.5 2-.4 1.1-4.7 6.1-9.6 11.1-6.6 6.7-10.6 9.8-15.2 12-7.5 3.5-13.8 4-16.7 1.4-3.9-3.5-1.9-14.5 5.2-28.9 1.6-3.3 4.1-8.9 5.5-12.5 1.4-3.7 3.9-9.4 5.4-12.9 1.6-3.4 2.9-6.5 2.9-6.7 0-.4 2.4-5.9 6.6-15.2.8-1.7 1.4-3.7 1.4-4.5 0-.8.4-1.8.8-2.4.5-.5 3.3-6.9 6.2-14.2 2.9-7.2 5.5-13.1 5.6-12.9.2.2.6 3.2.9 6.8zm211.3 6.1c-2.8 4.6-5.7 9.3-6.2 10.5-.6 1.3-1.4 2.3-1.8 2.3-.5 0-.8.5-.8 1.1 0 .6-1.3 3.1-3 5.6-1.6 2.4-3 4.6-3 4.9 0 .3-1.6 2.8-3.5 5.6-1.9 2.9-3.3 5.4-3.1 5.6.2.2 9.3.4 20.2.5l19.9.2.1 10.2c.1 9.8 0 10.3-2.5 12.5-9.7 8.6-15.8 11.1-25.4 10.7-6.2-.4-8-.9-11-3.2-5.8-4.4-7.1-7.7-6.9-18.7.2-11.9.5-13.2 4-17.8 1.5-2 8-11.5 14.3-20.9 6.3-9.5 12-17.3 12.7-17.3.6 0-1.1 3.7-4 8.2zm44.2-7.5c0 .5-.7 1.6-1.5 2.6-1.3 1.8-1.4 1.8-2.4-.2-1.5-2.8-1.4-3.1 1.4-3.1 1.4 0 2.5.3 2.5.7zm-219.8 3.4c-.1.8-.7 2.3-1.2 3.4s-2.2 5-3.9 8.7c-1.7 3.8-3.3 6.8-3.6 6.8-.3 0-1.4-1.5-2.5-3.3-3.7-6-2.1-12.6 3.9-15.8 3.8-2 7.8-1.9 7.3.2zm562.3-.7c2 .9 4.1 2.8 5.1 4.8 1.8 3.3 2 9 .3 9.6-.5.2-.9 1-.9 1.7 0 1.9-4.7 4.6-8 4.7-12.5.4-16.3-16.7-4.7-20.9 4.2-1.5 4.2-1.5 8.2.1zm-223.3 4c.9 1.8 3.6 6.4 6 10.2l4.4 6.9-.2 11.4c-.4 18 2.4 26.2 11.8 35.3 3.5 3.4 5.4 5.9 4.8 6.3-2 1.2-74.2.8-74.9-.4-1.8-2.8.5-9 5-13.8 5.9-6.3 20.9-25.8 20.9-27.2 0-.6.5-1.1 1-1.1.6 0 1-.5 1-1 0-.6.9-2 2-3.2 1.1-1.2 2-2.8 2-3.5 0-.7.5-1.3 1-1.3.6 0 1-.4 1-.9s1.9-4.2 4.3-8.3c2.3-4 4.9-8.5 5.6-10.1 1.8-3.5 2.4-3.4 4.3.7zM530 816c0 .5-.5 1-1.1 1-.5 0-.7-.5-.4-1 .3-.6.8-1 1.1-1 .2 0 .4.4.4 1zm86.4 29.2c-1.1 11.9-.4 36 1.2 40.2.5 1.4-.4 1.6-6.2 1.7-11.9.1-22.6-.1-23.3-.5-.4-.3-.6-45.8-.2-47.4.1-.1 6.6-.2 14.6-.2H617l-.6 6.2zm356.1 7.8h5.1v33.8l-43.3.1c-27.9 0-43.3-.3-43.3-.9 0-.6.9-1 1.9-1 6.4 0 25.5-12.6 39.4-26 3.1-3 6.9-5.7 8.4-6 1.5-.3 8.1-.4 14.7-.3 6.7.1 14.4.2 17.1.3zm-269.7 4.9c-.3 3.4-1.2 5.6-3 7.4l-2.4 2.4.1-7.1c.2-3.9.3-7.2.4-7.4 0-.1 1.3-.2 2.7-.2 2.6 0 2.6.2 2.2 4.9zm79.9 27.1c-.1 1.5-.8 2-3 2h-2.9l2.3-2c3.1-2.5 3.8-2.5 3.6 0zm-164.2 8.3c.6.3 2.4 3 3.8 6 4.1 8.3 8.8 12.8 17 16.1l5.5 2.2-9.2 5.8c-5 3.1-10 6.3-11.1 6.9-1.1.7-2.2 1.4-2.5 1.7-.3.3-2.5 1.8-4.9 3.4-5.1 3.3-3.3 4-22.1-8.3-13.5-8.9-13.5-8.9-15.2-6.8-1.6 2.1-1.5 2.3 7 7.8 4.8 3 12.6 8 17.3 11.1l8.6 5.6 8.8-5.9c4.9-3.3 8.9-5.9 9.1-5.9.1 0 3.2-2 6.8-4.5 3.7-2.5 6.9-4.5 7.2-4.5.3 0 4.3 2.4 8.7 5.3 4.5 2.9 8.9 5.6 9.7 6 .8.4 4.5 2.6 8.1 5.1l6.6 4.4 5.7-3.9c3.2-2.2 6.2-3.9 6.6-3.9.5 0 1.5-.6 2.2-1.4.8-.7 5.1-3.7 9.7-6.5l8.2-5.2 4.2 2.6c2.3 1.4 5.1 3.1 6.1 3.8 1.1.6 6.7 4.2 12.5 7.8l10.5 6.6 8.1-5.4c4.4-2.9 8.6-5.7 9.4-6 .8-.4 4.4-2.6 7.9-5 3.6-2.4 6.7-4.3 7.1-4.3.3 0 5.1 3 10.6 6.5s12.5 7.9 15.5 9.7c3 1.7 5.7 3.5 6 3.9.3.5 6-2.7 12.6-7 6.7-4.3 14.2-9.1 16.8-10.6l4.7-2.7 4 2.6c21.1 14 28.9 18.5 30.1 17.3.7-.7 4.9-3.4 9.3-6.1 4.4-2.7 9.4-5.9 11-7.1 1.7-1.2 4.8-3.2 7.1-4.4l4-2.3 10.5 6.7c5.7 3.7 13 8.5 16.2 10.5l5.9 3.8 6.1-4.1c3.4-2.3 11.2-7.3 17.3-11.2 9.8-6.3 11-7.3 9.9-8.8-.7-.9-1.7-1.7-2.3-1.7-1 0-20.9 12.5-23.8 14.9-.6.5-2.5 1.6-4.2 2.5-2.8 1.5-3.3 1.5-6.1-.2-1.7-.9-3.1-2-3.1-2.5 0-.4-.5-.7-1-.7-.6 0-4.4-2.3-8.5-5-4.1-2.8-7.7-5-8-5-.4 0-2.2-1.2-4.1-2.6-1.9-1.5-4.2-2.4-5.2-2.2-1.1.3-8.7 4.9-17 10.2-12.2 7.9-15.4 9.5-16.9 8.7-1-.5-8.5-5.2-16.7-10.5l-14.8-9.6-3.2 2.5c-1.8 1.4-3.8 2.5-4.4 2.5-.6 0-1.2.3-1.4.8-.1.4-5.6 4-12 8.1l-11.8 7.3-8.2-5.3c-4.6-2.9-11.9-7.6-16.4-10.5l-8.1-5.2-7.9 5.1c-12.1 8-24.4 15.7-25 15.7-.5 0-8.6-5.2-9.4-6-.3-.3-2.7-1.9-5.5-3.5-2.7-1.6-7.8-4.8-11.2-7.1l-6.2-4.2-11.8 7.4c-6.5 4-12.2 7.7-12.8 8.1-.5.5-2.7 1.9-4.8 3.2l-3.8 2.3-9.2-5.8c-5.1-3.2-9.3-6.2-9.5-6.6-.2-.4-.8-.8-1.3-.8-1.1 0-10.9-6.3-10.9-7 0-.3 2.8-.5 6.3-.6 6.6 0 12-.7 15.2-1.8 15.1-5.4 27-11.7 36.3-19.3 4.4-3.6 4.5-3.6 6.1-1.7 11.4 13.6 33.3 14 54 1l4.3-2.8 130.9-.1c72-.1 130.9-.1 130.9.1 0 .9-9.7 19.4-14 26.6-5.3 8.9-16.8 25.9-19.8 29.2-1 1-2.5 2.9-3.3 4.1-3.9 5.7-18.8 21.4-28.5 30.3-9.1 8.3-11.9 10.5-18.9 15.8-3.8 2.8-7.6 5.7-8.4 6.4-2.1 1.7-16.1 10.8-16.7 10.8-.3 0-1.8.9-3.4 2-2.6 1.8-28.2 15.3-28.7 15.1-.2 0-2.9 1.1-6 2.5-9 4-31.6 11.1-44.3 14-14.6 3.3-13.7 3.1-20.1 3.9-3 .4-5.6.8-5.9 1-1.6 1-20.3 2-37.5 1.9-22.1 0-31-.7-48.5-3.9-4.7-.9-9.2-1.7-10-1.9-.8-.1-2.6-.5-4-.9s-3.6-.9-5-1.1c-3.7-.7-14.5-4-23-7.1-4.1-1.4-7.9-2.8-8.5-2.9-.5-.1-2.7-1-4.9-1.9-2.1-.9-4-1.7-4.2-1.7-.7 0-26.5-12.8-29.9-14.8-7.4-4.3-16-9.6-16.5-10.1-.3-.3-3.4-2.6-6.9-5-3.5-2.4-7.1-5-8-5.7-5.7-4.5-16-13.1-18.1-15.1-1.4-1.3-5-4.7-8-7.6-3-2.9-8.9-9.1-13-13.7-9.5-10.7-9.1-10.3-11.5-13.6-1.1-1.5-2.5-3.2-3.1-3.8-1.9-2-17-25-20.4-31.1-1.8-3.3-5-9.4-7.1-13.5l-3.8-7.5 3.2-.5c4-.6 92.5-.3 94.2.3z"/><path d="M567.7 639.4c-2.7 2-2.9 2-3.8.3-1.2-2.1-3.2-2.2-4.9-.2-1.1 1.3-.9 1.9 1 3.7l2.3 2.1-2.3 1.9c-2.2 1.8-2.2 1.9-.4 3.9 1.8 2 1.8 2 3.8 0 1.9-2 2-2 4.7-.1 2.3 1.7 2.8 1.8 3.9.5 1-1.2.9-2-.4-4-1.5-2.2-1.5-2.8-.2-4.8 1.2-1.7 1.2-2.5.3-3.8-1.1-1.5-1.5-1.4-4 .5zM976.6 639.6c-.4 1 .1 2.5 1 3.5 1.2 1.4 1.3 2.2.4 3.8-.6 1.2-1.6 2.1-2.2 2.1-.6 0-.3.9.7 2 1.7 1.9 1.8 1.9 4.5 0 2.6-1.9 2.7-1.9 4.6.1 2 2 2 2 3.9-.1 1.8-1.9 1.8-2-.5-4l-2.3-2 2.2-2.1c1.7-1.6 2-2.4 1-3.5-1.5-1.8-2.8-1.8-5.1.3-1.7 1.5-1.9 1.5-3.6 0-2.3-2.1-3.8-2.1-4.6-.1zM1003.6 691.9c-1.5 1.7-1.5 2 .4 4.3 1.9 2.5 1.9 2.5 0 4.3-1.9 1.7-1.9 1.9-.3 3.7 1.6 1.8 1.7 1.8 3.9-.3l2.2-2.1 2.2 2.2c1.7 1.7 2.4 1.9 3.6.9 1.9-1.6 1.8-3.6-.3-4.8-1.5-.8-1.6-1.3-.5-2.8 2.3-3.4 2.4-4.4.6-5.7-1.6-1.2-2-1.1-3.2.5-1.7 2.4-2.3 2.4-4.9 0-2-1.9-2.2-1.9-3.7-.2zM532 692.5c-.9 1.1-.8 1.8.9 3.6l2.1 2.3-2 2.1c-2 2.1-2 2.2-.2 3.8 1.7 1.6 2 1.5 4.1-.4l2.2-2.1 2.1 2.2c1.9 2 2.1 2 3.9.4 1.9-1.7 1.9-1.8-.3-4.1l-2.2-2.3 2.2-2.1c2-1.7 2-2.2.8-3.5-1.9-1.9-2.9-1.8-5.1.6l-1.8 2-1.4-2c-1.7-2.4-3.6-2.6-5.3-.5zM660.8 969.4c-8 5.2-15.5 9.7-16.6 10-1.4.5-5.3-1.5-13.3-6.5-6.3-4-12.8-8.3-14.5-9.6-3.8-2.8-5-2.9-6.4-.3-1.1 2.1-1.9 1.5 24.3 18.4l8.9 5.7 9.1-5.9c14-9 23.1-14.5 24.2-14.5.6 0 8.3 4.6 17.2 10.2l16.2 10.3 2.8-2c6.4-4.5 12.5-8.2 13.3-8.2.4 0 1-.4 1.2-.8.3-.7 5.2-3.9 13-8.4 2.8-1.6 3-1.5 7.8 1.5 2.7 1.8 8.4 5.4 12.7 8.1 4.3 2.7 9.5 6 11.6 7.4 3.5 2.3 3.8 2.4 5.5.8 1-.9 2.2-1.6 2.7-1.6.4 0 2.3-1.1 4.1-2.5 1.8-1.4 3.5-2.5 3.9-2.5.6 0 8.8-5.2 9.5-6.1.3-.4 2.4-1.6 4.7-2.8 2.3-1.1 4.4-2.5 4.8-3 .9-1.5 2.5-.6 19.4 10.1l15.4 9.8 3.6-2.2c2-1.2 9.2-5.8 16.1-10.2 6.8-4.3 12.9-7.9 13.5-7.9.6 0 6.2 3.2 12.4 7.1 6.2 4 11.7 7.2 12.2 7.2s.9.4.9.9.8 1.2 1.8 1.5c.9.3 2.8 1.3 4.1 2 2.2 1.3 3.2.8 18-8.6 19.2-12.4 19.1-12.3 16.9-14.5-1.6-1.5-2-1.5-5.7 1-2.2 1.5-4.5 2.7-5.1 2.7-.5 0-1 .4-1 .8 0 .5-1.2 1.5-2.7 2.3-1.5.8-5.3 3.1-8.5 5.1-10.1 6.7-9.3 6.7-19.4.3-4.9-3.1-9.8-6.1-10.9-6.8-1.1-.7-3.8-2.4-6-3.8-5.9-3.8-7.8-4.2-10.6-2.1-1.3 1-7.6 5.1-13.9 9.1-6.3 3.9-12.3 7.7-13.2 8.3-1.8 1.3-3.1.8-10-3.4-2-1.3-5.8-3.6-8.5-5.2-2.6-1.6-5-3.2-5.3-3.5-.7-.8-5.6-3.7-9.8-5.9-2.1-1-3.6-1.3-4-.6-.6.8-17.1 11.4-28.7 18.4-2 1.2-2.8 1.3-4.5.2-1.1-.6-3-1.8-4.2-2.5-1.2-.6-2.7-1.6-3.2-2-2.2-1.6-11.8-7.7-12.2-7.7-.2 0-2.9-1.6-5.9-3.6l-5.5-3.7-8.7 5.3c-4.9 3-11.4 7.1-14.5 9.2-3.1 2.1-6.1 3.8-6.6 3.8s-1.5.6-2.1 1.4c-1 1.2-3 .3-11.9-5.5-5.9-3.8-11.5-7.2-12.4-7.6-1-.3-1.8-.9-1.8-1.4 0-.5-.6-.9-1.2-.9-.7 0-2.4-.9-3.8-2s-2.9-2-3.5-1.9c-.5 0-7.6 4.2-15.7 9.3zM709.2 1010c-5.6 4.4-10.5 8-10.8 8-.3 0-1.4.9-2.6 2-2.5 2.3-4.1 2.5-6 .7-1.7-1.7-22.6-17.1-23.7-17.5-.4-.1-1.2.8-1.8 2-.9 2-.5 2.7 3.6 5.7 2.5 2 5.1 3.9 5.6 4.4.6.4 5.1 3.9 10 7.6l9.1 6.9 11.9-9c6.6-5 13-9.7 14.2-10.5 2-1.4 2.9-.9 15.6 8.6 12.7 9.6 15.9 11.3 17.2 9.2.3-.6 6.1-5.1 13-10.1l12.4-9.1 5.8 4.3c7.3 5.4 6.6 4.9 14.3 10.8 3.6 2.7 7.1 5 7.7 5 1 0 19.5-13.3 24.8-17.7 3-2.6 4-2.2 17 7.6 7.4 5.6 13.9 10.1 14.5 10.1.9 0 11.6-7.5 13-9.1.3-.3 4-3.2 8.3-6.3 4.2-3.2 7.7-6.3 7.7-6.8s-.7-1.6-1.5-2.5c-1.4-1.3-1.9-1.2-4.8 1.1-4.5 3.7-4.3 3.5-13.6 10.4-4.6 3.4-8.7 6.2-9 6.2-.4 0-5-3.2-10.2-7.1-5.2-3.8-10.5-7.8-11.8-8.7-1.3-.9-2.9-2.3-3.6-3-.8-.6-1.8-1.2-2.3-1.2-.4 0-5.1 3.2-10.3 7-5.2 3.9-10.5 7.8-11.8 8.8-1.3.9-3 2.3-3.7 2.9-1.8 1.9-3.5 1.6-6.9-1.3-4.5-3.7-21.8-16.5-23.2-17.1-.6-.2-1.9.2-3 1.1-4 3.3-23.9 17.9-25 18.3-.9.4-21.7-14.3-26.1-18.5-.7-.6-1.9-1.2-2.5-1.2-.7.1-5.8 3.7-11.5 8zM1522.7 563.7c-.3.3-2.1.7-4.1.8-12.3 1.2-31.1 9.8-48.4 22.2-10.2 7.2-31 28.4-37.9 38.7-1.6 2.3-3.5 4.9-4.4 5.9-.9.9-2.2 3-3 4.5-.8 1.5-1.7 2.9-2 3.2-1.3 1.1-7.8 14.8-8.9 19-1.8 6.5-2 9.1-1 13 1.1 4.3 4.4 6.4 12.7 8.4 6 1.3 6 1.3 11.1-1.7 5.2-3.2 6.9-5.3 7.7-9.6.7-3.9 9.4-18.4 17.9-29.9 16.4-22.1 40.3-41.4 54.2-43.7 10.5-1.7 8 7.9-8 31.5-3.9 5.7-7.6 11.1-8.3 12-.7.8-8.2 10.9-16.7 22.5-8.5 11.5-15.9 21.4-16.3 22-.5.5-2.8 3.8-5.3 7.3-5.8 8.1-18.1 24.6-18.9 25.2-.3.3-2.8 3.2-5.6 6.5-2.7 3.3-8.1 9.6-12 14-14.6 16.7-19 21.8-20.1 22.9-1.6 1.7-14.3 19-20.6 28.1-7.7 11.2-8.2 12.2-9.2 19.6-.5 3.1 2.4 9.9 5.6 13.3 4 4.3 13.6 5.4 23.3 2.8 2.2-.6 5.6-1.3 7.5-1.6 1.9-.3 4.6-.8 6-1.2 2.5-.5 14.1-3 19-3.9 3.9-.8 7.3-1.4 9.5-1.9 5.8-1.3 18.2-3.8 19.8-4.1 6.4-1.3 28.3-6.9 33.5-8.6 3.7-1.2 6.7-2.9 7.3-4.1 3.3-6.1-4.4-25.8-11.9-30.2-1.6-.9-12.4-.1-16.9 1.4-1.5.5-4.1 1.1-5.8 1.4-3.2.5-26.6 7.1-37.5 10.6-13.6 4.4-13.1 4.3-10.7 1.8.6-.7 3.2-3.8 5.7-6.8s5.3-6.4 6.2-7.5c.9-1.1 8.5-10.3 16.9-20.5 8.3-10.2 15.6-18.7 16-18.8.5-.2.9-1 .9-1.7s.4-1.5.8-1.7c1.7-.7 39-49.1 47.2-61.3 1.9-2.8 3.6-5.2 4-5.5 1.3-1 14-21.7 14-22.7 0-.6.4-1.3.9-1.5 1.5-.5 9-16.5 12.1-25.6 5.3-15.9 3.2-27.2-6.8-36.9-4.6-4.3-8-6.1-12.9-6.8-2.1-.3-4.3-.8-5-1-.6-.2-1.3-.1-1.6.2zM307.8 675.5c-.1.2-4.6.6-9.9.9-11 .6-13.7 1.4-17 5-3.2 3.4-4.9 5.4-4.9 5.9 0 .3-4 8.8-9 19.1-4.9 10.2-9 19.1-9 19.6 0 .6-.4 1-1 1-.5 0-1 .6-1 1.4 0 .8-.9 3.1-2 5.3-1.1 2.1-4.5 9.2-7.6 15.8-8 17-13.1 27.7-21.8 45.9-4.2 8.7-7.6 16.2-7.6 16.5 0 2.3-4.4 4.9-9.2 5.6-2.9.4-6.2.9-7.3 1-1.7.4-4.7.8-13 2-1.1.2-6 .9-11 1.5-4.9.7-10 1.6-11.3 2.1-1.4.5-2.1.5-1.7 0 .3-.6-.8-.6-2.7-.1-1.8.5-5.1 1.1-7.3 1.4-2.2.3-7.1.9-11 1.5-3.8.5-9.7 1.3-13 1.7-3.3.3-6.8.8-7.9 1-1 .2-4.4.6-7.5 1-3.1.3-5.8.8-6.1.9-.3.2-1.1.1-1.7-.3-.7-.5 4.4-11.9 14.4-32.2 39.2-79.6 45.3-92.3 45.3-93.9 0-.6.4-1.1.8-1.1s1.3-1.8 1.9-4.1c1.1-4 1-4.2-3.1-8.3-2.2-2.2-5.2-4.6-6.6-5.2-5.3-2.4-16.9.6-22.2 5.6-5.4 5.1-28.4 22.4-37.4 28.2-13.2 8.4-17 10.4-24.2 12.7-6.9 2.1-21 2.2-25.4.1-3.4-1.6-4.4-4.1-2.4-5.6 3.5-2.5 1.2-4.4-4.4-3.8-7.1.8-14.7 6-19 12.9-3.2 5.1-3.4 14.1-.6 19.9 6.1 12.2 26.3 17.1 47.8 11.6 13.6-3.5 29.3-12.2 38.2-21.3 1.9-2 3.5-1.6 1.9.5-1.9 2.5-31.7 59.6-36.2 69.7-6.6 14.4-10.7 21.5-12.6 21.7-1.1.1-4 .4-6.5.8-13.6 1.7-24.7 2.5-39.7 3-5.1.1-9.5.5-9.9.8-1.4 1.4-.5 7.4 2.1 13.7 4.4 11 10.3 16.9 17.2 17.2 2.1.1 15.1-.7 20.2-1.3 1.9-.2 1.9.6 0 4.4-1.2 2.4-2.2 4.5-2.2 4.8 0 .3-1.1 2.2-2.4 4.2-1.3 2.1-2.2 3.8-2 3.8.2 0-3 6.4-6.9 14.2C7.3 953.9 1.3 967.6.3 978.6c-.5 5.5-.3 6.3 1.7 8.2 2.1 1.9 3.2 2.1 9.8 1.7 4-.3 8.3-1 9.4-1.6 1.4-.8 2.5-.7 4.2.5 6 3.9 8.1 1 22.1-30.4 2-4.7 4.6-10.3 5.6-12.5.9-2.2 4.1-9.4 6.9-16 2.9-6.6 6.1-14 7.3-16.5 1.1-2.5 2.2-5 2.3-5.5.1-.6 1.7-4.2 3.4-8 1.8-3.9 4.3-9.5 5.7-12.5 8.8-19.7 8.4-19 11.7-19.1 1.7 0 3.8-.2 4.6-.3.8-.2 4.4-.7 8-1.1 3.6-.4 7.6-.8 9-1 1.4-.2 5-.6 8-.9 5.9-.6 14.5-1.6 17.1-2.1.9-.2 4-.6 7-1 3-.3 6.5-.8 7.9-1 1.4-.2 4.8-.6 7.5-1 2.8-.3 5.9-.7 7-.9 1.1-.2 4.5-.7 7.5-1.1 3-.3 6.9-.9 8.5-1.1 3.8-.7 7.6-1.3 11.5-1.9 1.7-.2 3 0 3 .5s-1.4 4-3.1 7.7c-1.7 3.8-5 11.1-7.4 16.3-2.3 5.2-5.4 12-6.8 15-1.4 3-4.4 9.8-6.7 15-2.3 5.2-4.8 10.8-5.5 12.5-.7 1.6-2.8 6.4-4.5 10.5-1.7 4.1-3.8 8.8-4.5 10.5-6.5 14.4-9.4 24.2-8.3 28.2 1.4 5.2 5.6 5.7 18 2.3 4.3-1.2 8.2-1.9 8.6-1.6.5.3 1.9-.1 3.3-.7 1.3-.7 3.4-1.2 4.6-1.1 1.7.1 2.6-.9 4.2-4.6 1.1-2.6 3.4-7.6 5-11.1s3.9-8.7 5.1-11.4c1.3-2.8 3.3-7.3 4.5-10 1.3-2.8 4.9-10.9 8-18 3.2-7.2 7.5-16.8 9.6-21.3 2.2-4.6 3.9-8.6 3.9-8.7 0-.2 1.8-4.3 4-9s4-8.8 4-9c0-.2 2-4.8 4.5-10.1s4.5-9.8 4.5-10c0-.3 2.5-5.7 5.5-12 3-6.4 5.5-11.7 5.5-11.9 0-.4 7.8-17.1 15.1-32.3 2.8-5.7 6.3-13.2 7.8-16.5 1.6-3.4 9.3-19.3 17.1-35.2 22.6-46.1 25.7-52.9 25.6-56.4-.1-2.6-9.1-7.2-10.8-5.6z"/></svg>