<?xml version="1.0" encoding="UTF-8" standalone="no"?>
<svg
   xmlns:dc="http://purl.org/dc/elements/1.1/"
   xmlns:cc="http://creativecommons.org/ns#"
   xmlns:rdf="http://www.w3.org/1999/02/22-rdf-syntax-ns#"
   xmlns:svg="http://www.w3.org/2000/svg"
   xmlns="http://www.w3.org/2000/svg"
   xmlns:sodipodi="http://sodipodi.sourceforge.net/DTD/sodipodi-0.dtd"
   xmlns:inkscape="http://www.inkscape.org/namespaces/inkscape"
   version="1.1"
   id="svg3737"
   sodipodi:docname="logo.svg"
   inkscape:version="0.92.4 (5da689c313, 2019-01-14)"
   width="97.399246"
   height="39.707008">
  <metadata
     id="metadata3743">
    <rdf:RDF>
      <cc:Work
         rdf:about="">
        <dc:format>image/svg+xml</dc:format>
        <dc:type
           rdf:resource="http://purl.org/dc/dcmitype/StillImage" />
        <dc:title />
      </cc:Work>
    </rdf:RDF>
  </metadata>
  <defs
     id="defs3741" />
  <sodipodi:namedview
     pagecolor="#ffffff"
     bordercolor="#666666"
     borderopacity="1"
     objecttolerance="10"
     gridtolerance="10"
     guidetolerance="10"
     inkscape:pageopacity="0"
     inkscape:pageshadow="2"
     inkscape:window-width="1600"
     inkscape:window-height="837"
     id="namedview3739"
     showgrid="false"
     inkscape:zoom="4.3299648"
     inkscape:cx="84.803252"
     inkscape:cy="16.799011"
     inkscape:window-x="-8"
     inkscape:window-y="-8"
     inkscape:window-maximized="1"
     inkscape:current-layer="svg3737"
     showguides="false" />
  <g
     viewBox="0 0 300 300"
     id="g3799"
     transform="matrix(0.79414019,0,0,0.79414019,4.566963,-22.555556)">
    <svg
       viewBox="0 0 100% 100%"
       height="100%"
       width="100%"
       data-type="color"
       style="overflow:visible"
       version="1.1"
       id="svg3731">
      <path
         d="m 55.572886,28.402486 c -13.781251,0 -25.000001,11.21875 -25.000001,25 0,13.78125 11.21875,25 25.000001,25 13.781249,0 24.999999,-11.21875 24.999999,-25 0,-13.78125 -11.21875,-25 -24.999999,-25 z m 0,49.59375 c -13.562501,0 -24.593751,-11.03125 -24.593751,-24.59375 0,-13.5625 11.03125,-24.59375 24.593751,-24.59375 13.562499,0 24.59375,11.03125 24.59375,24.59375 0,13.5625 -11.031251,24.59375 -24.59375,24.59375 z m 16.343749,-18.5625 h 3.21875 l -2.125,-3.5 h 1.34375 l -1.8125,-3 h 1.25 l -2.09375,-3.46875 v 0.0312 l -4.8125,-6.71875 c 1.0625,-0.28125 1.8125,-1.1875 1.8125,-2.3125 0,-1.31249 -1.0625,-2.40624 -2.40625,-2.40624 -0.8125,0 -1.5625,0.40624 -1.999999,1.09375 l -2.28125,-3.18751 -1.875,2.46876 -5.75,-5.75001 -5.343751,5.34375 -1.78125,-2.25 -2.34375,3.40625 -0.0625,0.0625 -4.375,6.40625 -2.6875,3.96875 h 1.6875 l -2.4375,4.03125 h 1.8125 l -2.84375,4.68751 h 4.25 v 3.8125 h -5.5 l 0.125,0.28124 c 3.59375,8.21878 11.71875,13.53128 20.687501,13.53128 8.96875,0 17.093749,-5.3125 20.687499,-13.53125 l 0.125,-0.28125 h -4.46875 z m -0.09375,-6.90625 1.8125,3 h -1.34375 l 2.125,3.5 h -5.40625 l 2.125,-3.5 h -1.34375 l 1.8125,-3 h -1.25 l 1.34375,-2.25 1.34375,2.25 z m -5.53125,-14.03125 c 1.09375,0 1.96875,0.875 1.96875,1.96875 0,0.96875 -0.6875,1.78125 -1.65625,1.9375 l -0.5,-0.6875 -0.03125,-0.0625 -1.531249,-2.12499 c 0.374999,-0.625 1.031249,-1.03125 1.749999,-1.03125 z m -1.09375,2.625 0.53125,0.75 -1.281249,0.8125 0.218749,0.34375 1.3125,-0.84375 0.46875,0.65625 5.03125,7.03125 -1.84375,3.0625 h 1.25 l -1.8125,3 h 1.34375 l -2.125,3.5 h 3.21875 v 2.6875 h -8.718749 v -2.59375 c 0.5,-0.53124 4.062499,-4.59375 4.062499,-9.46875 0,-5.21875 -4.062499,-9.5 -4.093749,-9.53125 l -0.15625,-0.15625 -0.156251,0.15625 c -0.03125,0.0312 -0.687499,0.75 -1.5,1.9375 l -1.249999,-0.71875 -1.15625,0.8125 -0.5625,-0.53125 4.0625,-5.40625 z m -2.624999,-0.0937 c 0.71875,0.8125 3.843749,4.59375 3.843749,9.0625 0,4.125 -2.656249,7.65625 -3.624999,8.84375 v -4.53125 l 3.218749,-3.34375 -0.3125,-0.28125 -0.9375,0.96875 v -1.96875 h -0.406249 v 2.375 l -1.5625,1.625 v -4.875 l 1.937499,-2.03125 -0.312499,-0.28125 -1.625,1.71875 v -5.28125 h -0.406251 v 7.4375 l -1.156249,-1.375 v -1.65625 h -0.40625 v 1.15625 l -0.71875,-0.875 -0.3125,0.28125 2.5625,3.09375 0.0625,-0.0312 v 3.59375 l -2.781251,-2.78125 -0.281249,0.28125 3.0625,3.0625 v 3.75 c -0.96875,-1.15625 -3.625001,-4.6875 -3.625001,-8.84375 -0.0625,-4.5 3.062501,-8.28125 3.781251,-9.09375 z m -4.65625,-4.25 -1.156251,1.21875 -1.5,-1.78125 -0.749999,1.03125 -0.812501,-1.0625 -1.1875,1.75 -1.531249,-1.21875 3.437499,-3.4375 z m -10.625001,-0.28125 1.9375,2.4375 -0.96875,0.96875 -0.96875,-0.96875 -1.09375,1.0625 -0.78125,-0.78125 z m -7.71875,16.7187 h -1.8125 l 2.4375,-4.03125 h -1.65625 l 1.46875,-2.15625 0.4375,-0.65625 1.90625,2.8125 h -1.65625 l 2.4375,4.03125 h -1.8125 l 2.84375,4.68751 h -7.40625 z m 1.125,5.125 h 4.25 l -2.84375,-4.6875 h 1.8125 l -2.4375,-4.03125 h 1.6875 l -2.4375,-3.59375 4.4375,-6.4375 1.03125,1 1.0625,-1.0625 0.96875,0.96875 1.21875,-1.21875 4.375,5.5625 0.343751,-0.25 -4.843751,-6.21875 1.343751,-1.34375 1.9375,1.53125 1.125,-1.65625 0.812499,1.03125 0.78125,-1.0625 1.468751,1.75 1.46875,-1.5625 1.71875,1.71875 -6.78125,9.0625 0.34375,0.25 4.28125,-5.6875 0.75,0.71875 1.21875,-0.875 1,0.59375 c -1.125,1.75 -2.375,4.34375 -2.375,7.25 0,4.875 3.5625,8.9375 4.0625,9.46875 v 2.59375 h -5.968751 v -3.96875 l 1.6875,-1.75 -0.312499,-0.28125 -0.34375,0.34375 v -0.78124 h -0.40625 v 1.21874 l -0.625001,0.65625 v -2.3125 l 1.000001,-1.03125 -0.3125,-0.28125 -0.687501,0.71875 v -2.53125 h -0.40625 v 3.65625 l -0.406249,-0.5 v -0.84375 h -0.40625 v 0.34376 l -0.218751,-0.25001 -0.312499,0.28125 1.343749,1.625 v 1.5625 l -1.312499,-1.3125 -0.28125,0.28125 1.593749,1.59375 v 3.5625 h -6.75 v -2.6875 h 3.21875 l -2.124999,-3.5 h 1.343749 l -1.8125,-3 h 1.250001 l -2.093751,-3.46875 -2.09375,3.46875 h 1.25 l -1.8125,3 h 1.34375 l -2.125,3.5 h 3.21875 v 2.6875 h -8.21875 z m 5.75,0.6875 2.125,-3.5 h -1.34375 l 1.8125,-3 h -1.25 l 1.34375,-2.25 1.343751,2.25 h -1.250001 l 1.812501,3 h -1.343751 l 2.125001,3.5 z m 9.125001,16.53125 c -8.687501,0 -16.562501,-5.09375 -20.156251,-12.96875 h 40.3125 c -3.59375,7.875 -11.468749,12.96875 -20.156249,12.96875 z m -12.906251,-8.875 -2.71875,-1.75 0.21875,-0.34375 2.46875,1.59375 2.59375,-1.65625 2.59375,1.65625 2.59375,-1.65625 2.593751,1.65625 2.59375,-1.65625 2.593749,1.65625 2.593751,-1.65625 2.59375,1.65625 2.593749,-1.65625 2.59375,1.65625 2.46875,-1.59375 0.21875,0.34375 -2.71875,1.75 -2.59375,-1.65625 -2.593749,1.65625 -2.59375,-1.65625 -2.59375,1.65625 -2.59375,-1.65625 -2.593751,1.65625 -2.593749,-1.65625 -2.593751,1.65625 -2.59375,-1.65625 z m 25.90625,1.25 0.21875,0.34375 -2.71875,1.75 -2.624999,-1.65625 -2.625,1.65625 -2.625001,-1.65625 -2.624999,1.65625 -2.625,-1.65625 -2.625,1.65625 -2.625001,-1.65625 -2.625,1.65625 -2.71875,-1.75 0.21875,-0.34375 2.5,1.59375 2.625,-1.65625 2.625001,1.65625 2.625,-1.65625 2.625,1.65625 2.624999,-1.65625 2.625001,1.65625 2.625,-1.65625 2.624999,1.65625 z m -4.187499,3.34375 0.249999,0.34375 -2.343749,1.78125 -2.21875,-1.65625 -2.21875,1.65625 -2.21875,-1.65625 -2.21875,1.65625 -2.21875,-1.65625 -2.218751,1.65625 -2.34375,-1.78125 0.25,-0.34375 2.09375,1.5625 2.218751,-1.65625 2.21875,1.65625 2.21875,-1.65625 2.21875,1.65625 2.21875,-1.65625 2.21875,1.65625 z M 33.041635,54.558736 c -0.03125,-0.375 -0.03125,-0.78125 -0.03125,-1.15625 0,-12.4375 10.125,-22.5625 22.5625,-22.5625 12.4375,0 22.562501,10.125 22.562501,22.5625 0,0.375 0,0.78125 -0.03125,1.15625 l -0.40625,-0.0312 c 0.03125,-0.375 0.03125,-0.75 0.03125,-1.125 0,-12.21875 -9.9375,-22.15625 -22.156249,-22.15625 -12.218751,0 -22.15625,9.9375 -22.15625,22.15625 0,0.375 0,0.75 0.03125,1.125 z m 44.59375,1.21875 c -0.71875,0 -1.28125,0.5625 -1.28125,1.28125 0,0.71875 0.5625,1.28125 1.28125,1.28125 0.71875,0 1.281251,-0.5625 1.281251,-1.28125 0,-0.71875 -0.562501,-1.28125 -1.281251,-1.28125 z m 0,2.12501 c -0.46875,0 -0.874999,-0.37501 -0.874999,-0.87501 0,-0.46875 0.374999,-0.875 0.874999,-0.875 0.46875,0 0.875,0.375 0.875,0.875 0,0.5 -0.40625,0.87501 -0.875,0.87501 z m -44.28125,-2.12501 c -0.71875,0 -1.28125,0.5625 -1.28125,1.28125 0,0.71875 0.5625,1.28125 1.28125,1.28125 0.71875,0 1.28125,-0.5625 1.28125,-1.28125 0,-0.71875 -0.59375,-1.28125 -1.28125,-1.28125 z m 0,2.12501 c -0.46875,0 -0.875,-0.37501 -0.875,-0.87501 0,-0.46875 0.375,-0.875 0.875,-0.875 0.46875,0 0.875,0.375 0.875,0.875 -0.03125,0.5 -0.40625,0.87501 -0.875,0.87501 z m 39.21875,-15.21876 -0.34375,0.34375 0.34375,0.34375 -0.28125,0.28125 -0.34375,-0.34375 -0.34375,0.34375 -0.28125,-0.28125 0.343751,-0.34375 -0.343751,-0.34375 0.28125,-0.28125 0.34375,0.34375 0.34375,-0.34375 z m 2.09375,4.1875 -0.34375,0.34375 0.34375,0.34375 -0.28125,0.28125 -0.34375,-0.34375 -0.34375,0.34375 -0.28125,-0.28125 0.34375,-0.34375 -0.34375,-0.34375 0.28125,-0.28125 0.34375,0.34375 0.34375,-0.34375 z m -35.09375,-4.1875 -0.34375,0.34375 0.34375,0.34375 -0.28125,0.28125 -0.34375,-0.34375 -0.34375,0.34375 -0.28125,-0.28125 0.34375,-0.34375 -0.34375,-0.34375 0.28125,-0.28125 0.34375,0.34375 0.34375,-0.34375 z m -2.09375,4.1875 -0.34375,0.34375 0.34375,0.34375 -0.28125,0.28125 -0.34375,-0.34375 -0.34375,0.34375 -0.3125,-0.28125 0.34375,-0.34375 -0.34375,-0.34375 0.28125,-0.28125 0.34375,0.34375 0.34375,-0.34375 z"
         data-color="1"
         id="path3729"
         inkscape:connector-curvature="0"
         style="fill:#d39323;stroke-width:0.31250003" />
    </svg>
    <svg
       height="100%"
       width="100%"
       viewBox="0 0 100% 100%"
       style="overflow:visible"
       version="1.1"
       id="svg3735">
      <path
         d="m 17.193645,45.527002 1.342199,-0.07056 0.19807,-0.02432 v 0 q 0.09284,-0.0114 0.11294,-0.0013 v 0 0 q 0.02624,0.0093 0.06493,0.01716 v 0 0 q 0.03793,0.0018 0.07266,0.02878 v 0 0 q 0.08111,0.04658 0.227167,0.110337 v 0 0 q 0.196223,0.114138 0.218269,0.293638 v 0 0 q 0.02202,0.179504 -0.260856,0.79228 v 0 0 q -0.283655,0.60659 -1.473986,3.039782 v 0 0 q -2.748914,5.602747 -4.879482,10.356743 v 0 0 Q 9.1364999,68.33113 9.0984909,68.379778 v 0 0 q -0.04423,0.04942 -0.05053,0.100447 v 0 0 q -0.0079,0.08894 -0.113159,0.101864 v 0 l -0.215774,-0.01748 -0.395601,0.155385 -0.246725,-0.0137 -0.248459,0.07449 -0.09284,0.0114 -0.833553,0.221726 v 0 q -0.755151,0.09275 -0.818229,-0.420991 v 0 0 q -0.0258,-0.210453 0.07157,-0.54285 v 0 0 q 0.335142,-1.159536 3.731622,-8.601045 v 0 0 q -2.788647,0.417799 -5.50595,0.751442 v 0 l -3.251899,0.380435 v 0 q -0.64658804,1.38626 -1.74352904,3.914796 v 0 0 q -2.37741696,5.506858 -2.56941196,5.580696 v 0 0 q -0.191228,0.08002 -0.308836,0.09447 v 0 0 q -0.1238,0.01519 -0.246501,-0.114254 v 0 0 q -0.12271,-0.12941 -0.15985,-0.124844 v 0 0 q -0.03716,0.0045 -0.154092,0.07546 v 0 0 q -0.110007,0.07634 -0.339026,0.104452 v 0 l -0.348144,0.03019 -0.147575,-0.07612 v 0 q -0.01247,0.0015 -0.0318,0.04789 v 0 0 q -0.0187,0.05256 -0.10534,0.0632 v 0 0 q -0.649922,0.07979 -0.716806,-0.464897 v 0 0 q -0.04484,-0.365195 0.136741,-0.984382 v 0 0 q 0.187767,-0.619948 0.516597,-1.370309 v 0 0 q 0.329598,-0.744173 1.744283,-3.550482 v 0 0 q 1.409258,-2.799358 1.406982,-2.817928 v 0 0 q -0.28625,0.02258 -0.666105,0.05037 v 0 0 q -0.773717,0.09501 -1.096237,0.07806 v 0 0 q -0.879379,-0.04911 -1.350856,-1.279247 v 0 0 q -0.243125,-0.598461 -0.25506,-0.798053 v 0 0 q -0.05014,-0.408522 0.296464,-0.451083 v 0 l 0.409066,0.05658 v 0 q 0.305575,-0.01867 1.458282,-0.09737 v 0 0 q 1.158131,-0.08564 1.653313,-0.146453 v 0 l 0.85733396,-0.130399 v 0 q 1.589859,-3.324179 3.84844304,-7.547267 v 0 0 q -1.798644,1.879576 -4.231218,2.178259 v 0 0 q -1.145104,0.140604 -2.042175,-0.308443 v 0 0 q -0.903257,-0.448288 -1.007376,-1.296282 v 0 0 q -0.10412,-0.847998 0.473386,-1.415269 v 0 0 q 0.570553,-0.572701 1.146201,-0.64338 v 0 0 q 0.575643,-0.07069 0.598443,0.115012 v 0 0 q 0.0068,0.05572 -0.144213,0.155933 v 0 0 q -0.145623,0.09328 -0.1365,0.167554 v 0 0 q 0.02962,0.241401 0.579329,0.368683 v 0 0 q 0.55511896,0.120329 1.21123196,0.03978 v 0 0 q 0.656115,-0.08055 1.57459504,-0.582885 v 0 0 q 0.918478,-0.502325 1.890066,-1.237361 v 0 0 q 1.344282,-1.025887 2.123881,-1.687086 v 0 0 q 0.453156,-0.30068 0.874064,-0.352361 v 0 0 q 0.427089,-0.05244 0.624941,0.02379 v 0 0 q 0.204044,0.07547 0.302103,0.15768 v 0 0 q 0.105005,0.08764 0.229992,0.235652 v 0 0 q 0.124982,0.148012 0.233902,0.216319 v 0 0 q 0.108909,0.0683 0.122591,0.179722 v 0 0 q 0.01291,0.105224 -0.07114,0.341737 v 0 0 q -0.08949,0.24346 -0.931764,1.980479 v 0 0 q -0.842253,1.736988 -2.175499,4.43905 v 0 0 q -1.333238,2.702065 -1.943984,3.970838 v 0 0 q 4.035719,-0.495524 8.6969331,-1.218643 v 0 0 q 4.596474,-9.693677 4.858953,-10.165719 v 0 0 q 0.261714,-0.478233 0.50496,-0.646327 v 0 0 q 0.237064,-0.167335 0.614637,-0.213696 z m 7.664747,9.56418 v 0 0 q 0.122358,0.99655 -0.59578,1.85126 v 0 0 q -0.711186,0.860142 -1.738682,0.986303 v 0 0 q -0.334249,0.04104 -0.459236,-0.106975 v 0 0 q -0.12498,-0.148014 -0.156143,-0.401793 v 0 0 q -0.03194,-0.259969 3.37e-4,-0.508971 v 0 0 q -0.522658,0.246385 -1.144792,0.70604 v 0 0 q -0.615186,0.465085 -1.490341,1.320227 v 0 0 q -0.880595,0.86209 -0.836511,1.221096 v 0 0 q 0.01523,0.1238 0.374205,0.0797 v 0 0 q 0.352814,-0.04332 1.065186,-0.382112 v 0 0 q 0.705419,-0.344219 1.002526,-0.380701 v 0 0 q 0.297106,-0.03649 0.387563,-0.01617 v 0 0 q 0.210997,0.0809 0.484094,0.41179 v 0 0 q 0.266149,0.325456 0.291232,0.529716 v 0 0 q 0.02507,0.204264 -0.323834,0.586391 v 0 0 q -0.355866,0.376698 -0.829763,0.610811 v 0 0 q -0.479329,0.241064 -0.635814,0.34824 v 0 0 q -2.968837,2.174051 -2.886763,2.842547 v 0 0 q 0.144406,1.176052 2.156074,0.929049 v 0 0 q 1.281278,-0.157317 2.480807,-1.133966 v 0 0 q 1.022847,-0.829293 1.813626,-1.655225 v 0 0 q 0.796974,-0.826692 1.011667,-1.022695 v 0 0 q 0.21469,-0.196005 0.332294,-0.210444 v 0 0 q 0.396144,-0.04865 0.504068,0.830306 v 0 0 q 0.107907,0.878942 0.03692,1.170403 v 0 0 q -0.07102,0.291459 -0.522234,0.761543 v 0 0 q -2.908052,3.027369 -5.798665,3.382291 v 0 0 q -1.54125,0.189242 -2.509775,-0.125367 v 0 0 Q 15.08043,67.155195 14.885104,65.564429 v 0 0 q -0.256123,-2.085948 2.496827,-3.510938 v 0 0 q -0.600618,-0.183858 -0.817146,-0.565673 v 0 0 q -0.21652,-0.381819 -0.325199,-1.266952 v 0 0 Q 16.131679,59.34192 16.8333,58.25048 v 0 0 q 0.701638,-1.091443 1.817981,-1.875667 v 0 0 q 2.485272,-1.762827 4.565025,-2.018188 v 0 0 q 0.501375,-0.06155 1.044762,0.116755 v 0 0 q 0.54339,0.178325 0.597351,0.617796 z m 8.617013,-6.423779 v 0 0 q 0.105638,0.860377 -0.59263,1.825742 v 0 0 q -0.691311,0.970797 -1.564066,1.077958 v 0 0 q -0.86657,0.10641 -0.978292,-0.803495 v 0 0 q -0.110959,-0.903703 0.5493,-1.82042 v 0 0 q 0.666448,-0.917479 1.588719,-1.030719 v 0 0 q 0.408529,-0.05015 0.677288,0.143031 v 0 0 q 0.269523,0.19938 0.319681,0.607903 z m -0.831572,13.491326 v 0 0 q 0.05551,0.451853 -0.01304,0.661324 v 0 0 q -0.55114,1.60074 -2.052664,2.727566 v 0 0 q -1.507711,1.127585 -2.696144,1.273505 v 0 0 q -1.194622,0.146681 -2.159224,-0.545395 v 0 0 Q 24.764344,65.582891 24.66174,64.747275 v 0 0 q -0.101844,-0.829427 0.539216,-2.516604 v 0 0 q 0.634106,-1.692608 1.298608,-3.137625 v 0 0 q 0.664508,-1.445018 0.650827,-1.556433 v 0 0 q -0.01447,-0.117605 -0.36421,-0.407662 v 0 0 q -0.350523,-0.296246 -0.370286,-0.45718 v 0 0 q -0.01902,-0.154744 0.529519,-0.906948 v 0 0 q 0.542322,-0.751443 1.359275,-1.517759 v 0 0 q 0.823146,-0.767074 1.293564,-0.824834 v 0 0 q 0.47661,-0.05853 0.905869,0.316021 v 0 0 q 0.430014,0.380734 0.472577,0.72736 v 0 0 q 0.0426,0.346626 -2.792925,6.984133 v 0 0 q -0.03194,0.09816 -0.198187,0.432734 v 0 0 q -0.166264,0.334567 -0.252598,0.552509 v 0 0 q -0.09252,0.218703 -0.206121,0.521672 v 0 0 q -0.228813,0.643835 -0.178655,1.05236 v 0 0 q 0.06307,0.513748 0.762523,0.427868 v 0 0 q 0.693252,-0.08511 1.38369,-0.653693 v 0 0 q 0.690445,-0.568571 1.158268,-1.210339 v 0 0 q 1.235923,-1.70367 1.433998,-1.72799 v 0 0 q 0.389951,-0.04789 0.557152,1.313864 z m 3.746022,-6.334623 -0.514317,1.030743 v 0 q 3.068255,-4.485861 5.575103,-4.793664 v 0 0 q 0.618978,-0.076 1.066149,0.239795 v 0 0 q 0.447936,0.321984 0.520139,0.91001 v 0 0 q 0.07295,0.594216 -0.599366,2.077892 v 0 0 q -0.666135,1.482917 -1.260917,2.523539 v 0 0 q -0.318297,0.529161 -0.794908,0.587682 v 0 0 q -0.476612,0.05853 -0.785329,-0.255426 v 0 0 Q 39.293883,57.829971 39.236117,57.35955 v 0 0 q -0.127682,-1.03988 0.824597,-2.495098 v 0 l -0.03398,-0.02097 v 0 q -0.489862,0.104128 -2.228794,2.265392 v 0 0 q -1.732738,2.160507 -2.93304,3.847238 v 0 0 q -1.193353,1.692159 -2.54212,4.063124 v 0 0 q -0.39062,0.707685 -0.712485,0.747205 v 0 0 q -0.328056,0.04028 -0.891644,-0.09787 v 0 0 q -0.557402,-0.138903 -0.68565,-0.211119 v 0 0 q -0.122824,-0.07918 -0.148653,-0.289618 v 0 0 q -0.02581,-0.210451 0.06375,-0.50419 v 0 0 q 0.08265,-0.299169 0.347619,-0.853199 v 0 0 q 0.258792,-0.553271 0.774305,-1.778935 v 0 0 q 0.520936,-1.232614 1.621682,-3.730204 v 0 0 q 1.106933,-2.498348 1.320001,-3.014589 v 0 0 q 0.447093,-1.066471 0.75681,-1.563164 v 0 0 q 0.575231,-0.943974 2.190758,-1.142336 v 0 0 q 0.365195,-0.04483 0.420678,0.407012 v 0 0 q 0.0874,0.711821 -0.990095,2.835854 z M 52.491438,40.149988 v 0 q 0.724201,-0.08893 1.327532,0.270531 v 0 0 q 0.604086,0.365642 0.708207,1.213638 v 0 0 q 0.103356,0.841806 -0.609369,2.763975 v 0 0 q -0.712732,1.922168 -1.800107,3.965736 v 0 0 q -1.081184,2.042805 -2.486308,4.364142 v 0 0 q -2.212529,3.677089 -4.304401,6.648225 v 0 0 q 0.0037,0.181782 -0.0479,0.684453 v 0 0 q -0.05064,0.508862 0.01012,1.004041 v 0 0 q 0.06154,0.50137 0.568999,0.847465 v 0 0 q 0.512876,0.339143 1.193748,0.255542 v 0 0 q 0.67468,-0.08285 1.395308,-0.661403 v 0 0 q 0.720629,-0.578561 1.22408,-1.237268 v 0 0 q 1.318777,-1.745259 1.677785,-1.78934 v 0 0 q 0.365194,-0.04483 0.501231,1.063125 v 0 l 0.03649,0.297109 v 0 q 0.07297,0.594216 -0.104034,0.892406 v 0 0 q -1.078139,1.709429 -2.575429,2.666091 v 0 0 q -1.490335,0.962091 -2.907788,1.136131 v 0 0 q -1.42364,0.174802 -2.273571,-0.606752 v 0 0 Q 43.183048,63.15171 42.997607,61.64141 v 0 0 q -0.361764,-2.946323 0.727177,-7.126325 v 0 0 q 1.089708,-4.173813 2.726901,-7.214784 v 0 0 q 3.681418,-6.860752 6.039715,-7.150313 z m -0.37307,2.59045 v 0 0 q -0.02739,-0.222832 -0.175912,-0.204591 v 0 0 q -0.532319,0.06537 -2.408317,3.361841 v 0 0 q -1.882188,3.297242 -2.669957,5.222342 v 0 0 q -0.782336,1.91815 -1.339258,4.751082 v 0 0 q 1.522728,-2.335779 4.123063,-7.204002 v 0 0 q 2.600344,-4.868225 2.470381,-5.926672 z m 7.457267,7.874377 v 0 0 q 0.451853,-0.05547 0.978621,0.294524 v 0 0 q 0.526768,0.350003 0.629374,1.18562 v 0 0 q 0.103356,0.841806 -0.320506,2.250993 v 0 0 q -0.430057,1.409947 -1.288069,2.916424 v 0 0 q -0.857258,1.512666 -1.940062,2.877097 v 0 0 q -1.082038,1.370624 -2.409919,2.325334 v 0 0 q -1.334836,0.949281 -2.498504,1.092162 v 0 0 q -1.163677,0.14288 -1.952797,-0.50163 v 0 0 q -0.795315,-0.64375 -0.956434,-1.955977 v 0 0 q -0.160364,-1.306038 0.288807,-2.969655 v 0 0 q 0.448417,-1.669808 1.308381,-3.00688 v 0 0 q 0.865402,-1.344022 1.922894,-2.454024 v 0 0 q 2.220319,-2.283205 4.077247,-2.511207 v 0 0 q 0.835617,-0.102595 1.306677,0.254243 v 0 0 q 0.165274,0.117938 0.178194,0.223159 v 0 l 0.0114,0.09284 v 0 q 0.212843,-0.05755 0.664696,-0.113032 z m -1.281871,2.199392 v 0 l -0.105225,0.01292 v 0 q -0.526125,0.06461 -0.621129,-0.709119 v 0 0 q -1.056936,0.500477 -2.159165,1.553141 v 0 0 q -1.095283,1.058096 -1.896503,2.413087 v 0 0 q -1.627202,2.713023 -1.448383,4.425195 v 0 0 q 0.104117,0.847996 0.723091,0.771995 v 0 0 q 0.618977,-0.07601 1.744224,-1.043528 v 0 0 q 1.119062,-0.966769 2.134434,-2.624511 v 0 0 q 1.021558,-1.6585 1.479735,-2.839427 v 0 0 q 0.457414,-1.187116 0.408018,-1.58945 v 0 0 q -0.04865,-0.396146 -0.259097,-0.370303 z m 12.615308,-3.590963 v 0 0 q 0.451853,-0.05547 0.978621,0.294523 v 0 0 q 0.526768,0.350003 0.629372,1.185621 v 0 0 q 0.103357,0.841806 -0.320504,2.250994 v 0 0 q -0.423865,1.409187 -1.281885,2.915662 v 0 0 q -0.863443,1.513426 -1.940054,2.877098 v 0 0 q -1.082043,1.370623 -2.416112,2.326095 v 0 0 q -1.334833,0.94928 -2.498502,1.092159 v 0 0 q -1.163677,0.142884 -1.952797,-0.501628 v 0 0 q -0.795315,-0.64375 -0.956441,-1.955977 v 0 0 q -0.160358,-1.306038 0.288815,-2.969656 v 0 0 q 0.448416,-1.669807 1.308379,-3.00688 v 0 0 q 0.865403,-1.344021 1.922895,-2.454024 v 0 0 q 2.220316,-2.283205 4.077244,-2.511206 v 0 0 q 0.835617,-0.102595 1.306678,0.254243 v 0 0 q 0.165274,0.117938 0.178196,0.223159 v 0 l 0.0114,0.09284 v 0 q 0.212841,-0.05754 0.664694,-0.113031 z M 69.6272,51.422635 v 0 l -0.105225,0.01292 v 0 q -0.526126,0.06461 -0.621129,-0.709119 v 0 0 q -1.056935,0.500477 -2.159166,1.553141 v 0 0 q -1.095279,1.058096 -1.8965,2.413086 v 0 0 q -1.627202,2.713024 -1.448384,4.425197 v 0 0 q 0.104117,0.847995 0.723091,0.771996 v 0 0 q 0.618979,-0.076 1.744226,-1.04353 v 0 0 q 1.119059,-0.96677 2.140618,-2.62527 v 0 0 q 1.015371,-1.657741 1.473548,-2.838666 v 0 0 q 0.463607,-1.187877 0.414205,-1.59021 v 0 0 q -0.04865,-0.396143 -0.265283,-0.369544 z m 3.777707,9.274915 v 0 l -0.740378,0.0595 -0.27235,0.03343 v 0 q -0.160064,-0.02432 -0.350095,-0.139221 v 0 0 Q 71.852047,60.536367 71.7516,60.485862 v 0 0 q -0.09426,-0.05126 -0.113262,-0.206001 v 0 0 q -0.01978,-0.160934 0.04994,-0.565329 v 0 0 q 2.149837,-6.848624 4.427755,-11.0678 v 0 0 q 0.250858,-0.464335 0.892754,-0.763057 v 0 0 q 0.648082,-0.299481 1.279432,-0.377002 v 0 0 q 0.377579,-0.04636 0.449776,0.541666 v 0 0 q 0.02051,0.167122 -0.06288,0.460101 v 0 0 q -0.0896,0.29374 -0.49411,0.990566 v 0 0 q -0.40528,0.690634 -0.967264,1.589003 v 0 0 q -0.568172,0.899128 -0.640387,1.027373 v 0 0 q 1.804412,-2.395497 3.346449,-3.652957 v 0 0 q 1.54203,-1.25746 2.29099,-1.34942 v 0 0 q 0.74277,-0.0912 1.19831,0.292681 v 0 0 q 0.45477,0.377693 0.51557,0.872873 v 0 0 q 0.0601,0.488991 0.0322,0.825408 v 0 0 q -0.0286,0.330227 -0.17017,0.712033 v 0 0 q -0.13619,0.374856 -0.23577,0.638406 v 0 0 q -0.0934,0.262791 -0.3473,0.702366 v 0 0 q -0.25389,0.439573 -0.34707,0.601808 v 0 0 q -0.0986,0.169182 -0.39974,0.633406 v 0 0 q -0.30113,0.464224 -0.326,0.517543 v 0 0 q 0.36847,-0.478774 1.02178,-1.400921 v 0 0 q 0.6533,-0.922148 1.10408,-1.549258 v 0 0 q 0.45773,-0.621676 1.15795,-1.41764 v 0 0 q 0.69946,-0.802143 1.32018,-1.324455 v 0 0 q 1.50794,-1.228141 3.18536,-1.434103 v 0 0 q 0.57565,-0.07069 1.01043,0.246634 v 0 0 q 0.44023,0.310364 0.50255,0.817924 v 0 0 q 0.0623,0.507559 -0.9284,2.570676 v 0 0 q -0.99074,2.063115 -1.96756,4.137089 v 0 0 q -0.98302,2.074734 -0.92146,2.576103 v 0 0 q 0.0851,0.693253 0.36105,0.791318 v 0 0 q 0.26974,0.09882 0.63114,0.02303 v 0 0 q 0.36139,-0.07579 0.96355,-0.595822 v 0 0 q 0.60215,-0.520034 1.0589,-1.047346 v 0 0 q 0.7367,-0.856991 1.36112,-1.656213 v 0 0 q 0.13184,-0.154414 0.31754,-0.177214 v 0 0 q 0.28472,-0.03496 0.40058,0.396912 v 0 0 q 0.11509,0.425682 0.17286,0.896104 v 0 0 q 0.0577,0.470421 -0.013,0.661325 v 0 0 q -0.33535,0.901955 -1.68279,2.311447 v 0 0 q -1.34201,1.402544 -2.71613,1.571265 v 0 0 q -0.16713,0.02051 -0.24911,0.01802 v 0 0 q -1.57263,0.03603 -2.25273,-0.590464 v 0 0 q -0.68705,-0.631912 -0.80561,-1.597512 v 0 0 q -0.11855,-0.965602 0.36884,-2.420288 v 0 0 q 0.49358,-1.455446 1.14211,-2.672313 v 0 0 q 0.64235,-1.216105 1.19445,-2.194939 v 0 0 q 0.54592,-0.978076 0.53603,-1.058542 v 0 0 q -0.009,-0.07427 -0.13291,-0.05908 v 0 0 q -0.46423,0.05699 -1.9005,1.766422 v 0 0 q -2.44295,2.926279 -4.15974,5.574904 v 0 0 q -0.45404,0.702906 -2.11164,3.526474 v 0 0 q -0.19179,0.331419 -0.68078,0.39146 v 0 0 q -0.49518,0.06081 -1.044864,-0.06648 v 0 0 Q 77.81898,59.803717 77.781737,59.500417 v 0 0 q -0.01822,-0.148554 1.887206,-4.535624 v 0 0 q 1.90002,-4.380118 1.85442,-4.751503 v 0 0 q -0.0456,-0.371384 -0.49126,-0.316665 v 0 0 q -0.44566,0.05473 -1.67495,1.55652 v 0 0 q -3.376104,4.127829 -5.03135,7.994095 v 0 0 q -0.109566,0.233362 -0.444045,0.733096 v 0 0 q -0.340669,0.500491 -0.476842,0.51721 z m 21.614886,-5.261449 v 0 0 q 3.80455,-1.252522 5.314857,-1.437965 v 0 0 q 0.55707,-0.06839 0.67466,0.275297 v 0 0 q 0.0477,0.132374 0.17984,0.185262 v 0 0 q 0.12596,0.05364 0.32055,0.563815 v 0 0 q 0.19458,0.510169 0.24799,0.842895 v 0 l 0.0167,0.136175 v 0 q 0.0654,0.532318 -0.31547,0.654476 v 0 0 q -1.41735,0.4819 -4.655897,1.124583 v 0 0 q -3.24475,0.643445 -3.85308,0.8061 v 0 0 q -0.31568,0.03875 -1.05149,-0.222745 v 0 0 q -0.1529,-0.119454 -0.3564,-0.446319 v 0 0 q -0.20349,-0.326866 -0.23466,-0.580646 v 0 0 q -0.0319,-0.25997 0.18833,-0.871337 v 0 0 q 0.0304,-0.110545 1.62643,-2.361078 v 0 0 q 0.39257,-0.53828 2.09848,-2.456735 v 0 0 q 1.70515,-1.924645 2.35151,-2.852221 v 0 0 q 0.63941,-0.933009 2.27551,-3.113063 v 0 0 q 1.636847,-2.173865 2.407557,-3.368031 v 0 0 q 0.77689,-1.194928 0.72141,-1.64678 v 0 0 q -0.0349,-0.284728 -0.47444,-0.230768 v 0 0 q -0.43947,0.05397 -1.03195,0.39688 v 0 0 q -0.59324,0.336731 -1.3635,0.97165 v 0 0 q -1.796257,1.489732 -3.281197,4.235554 v 0 0 q -0.0837,0.08567 -0.0541,0.327078 v 0 0 q -0.0804,0.317738 -0.45219,0.564449 v 0 0 q -0.36564,0.245952 -0.60704,0.275593 v 0 0 q -0.2414,0.02964 -0.63255,-0.08568 v 0 0 q -0.39114,-0.115325 -0.59117,-0.260414 v 0 0 q -0.20545,-0.138139 -0.26321,-0.608559 v 0 0 q -0.0577,-0.470422 0.36816,-1.402348 v 0 0 q 0.41972,-0.931166 1.25287,-2.026189 v 0 0 q 0.8339,-1.088831 1.8966,-2.105228 v 0 0 q 1.06347,-1.010205 2.447377,-1.764455 v 0 0 q 1.37773,-0.753487 2.39285,-0.878129 v 0 0 q 1.00892,-0.123876 1.54569,0.256312 v 0 0 q 0.99164,0.707605 1.114,1.704156 v 0 0 q 0.12236,0.99655 -0.63988,2.566663 v 0 0 q -0.76919,1.564684 -2.17116,3.502366 v 0 0 q -1.40272,1.931493 -2.663937,3.531456 v 0 0 q -1.26199,1.593774 -2.81228,3.449142 v 0 0 q -1.5503,1.855367 -1.93582,2.348799 z M 106.65654,54.00729 v 0 0 q 3.79834,-1.251764 5.31483,-1.437965 v 0 0 q 0.55708,-0.06839 0.67468,0.275295 v 0 0 q 0.0477,0.132376 0.17982,0.185262 v 0 0 q 0.12596,0.05364 0.32056,0.563818 v 0 0 q 0.19459,0.510167 0.248,0.842893 v 0 l 0.0167,0.136175 v 0 q 0.0654,0.53232 -0.31547,0.654478 v 0 0 q -1.41736,0.481897 -4.6559,1.124582 v 0 0 q -3.24474,0.643443 -3.85307,0.806101 v 0 0 q -0.31567,0.03875 -1.05768,-0.221986 v 0 0 q -0.15289,-0.119455 -0.35018,-0.44708 v 0 0 q -0.2035,-0.326867 -0.23466,-0.580646 v 0 0 q -0.0319,-0.25997 0.18831,-0.871337 v 0 0 q 0.0305,-0.110544 1.62644,-2.361078 v 0 0 q 0.39257,-0.538279 2.09849,-2.456736 v 0 0 q 1.70515,-1.924644 2.34531,-2.851461 v 0 0 q 0.64561,-0.933768 2.28169,-3.113821 v 0 0 q 1.63686,-2.173864 2.40757,-3.368032 v 0 0 q 0.77689,-1.194928 0.7214,-1.64678 v 0 0 q -0.035,-0.284727 -0.47443,-0.230768 v 0 0 q -0.43948,0.05397 -1.03195,0.39688 v 0 0 q -0.59325,0.336732 -1.3635,0.971651 v 0 0 q -1.79626,1.489732 -3.2812,4.235553 v 0 0 q -0.0838,0.08567 -0.054,0.327077 v 0 0 q -0.0804,0.317739 -0.45218,0.564451 v 0 0 q -0.36564,0.245951 -0.60704,0.275593 v 0 0 q -0.24141,0.02964 -0.63254,-0.08571 v 0 0 q -0.39117,-0.115328 -0.59119,-0.260417 v 0 0 q -0.20546,-0.138126 -0.26322,-0.608547 v 0 0 q -0.0577,-0.470421 0.36816,-1.402347 v 0 0 q 0.41972,-0.931166 1.25287,-2.026189 v 0 0 q 0.83389,-1.088832 1.8966,-2.105227 v 0 0 q 1.06347,-1.010207 2.44737,-1.764456 v 0 0 q 1.37773,-0.75349 2.39285,-0.878131 v 0 0 q 1.00893,-0.123876 1.54569,0.256311 v 0 0 q 0.99164,0.707609 1.114,1.704158 v 0 0 q 0.12236,0.99655 -0.63987,2.566664 v 0 0 q -0.7692,1.564683 -2.17117,3.502364 v 0 0 q -1.40272,1.931493 -2.66394,3.531458 v 0 0 q -1.26198,1.593775 -2.81227,3.449141 v 0 0 q -1.5565,1.856126 -1.93581,2.3488 z"
         id="path3733"
         inkscape:connector-curvature="0"
         style="fill:#43341b;stroke:none;stroke-width:0.62362373" />
    </svg>
  </g>
</svg>
